<svg xmlns="http://www.w3.org/2000/svg" width="273" height="473" viewBox="0 0 273 473">
    <g fill="none" fill-rule="evenodd">
        <g stroke="#749233" stroke-linecap="round" stroke-linejoin="round" stroke-width="15.36">
            <path fill="#E7AF3D" d="M73.55 298.333v139.29s.546 26.896 30.589 26.896 29.86-25.444 29.86-25.444V298.333c0-16.693-13.532-30.225-30.225-30.225-16.692 0-30.224 13.532-30.224 30.225z"/>
            <path stroke-dasharray="24,29" d="M199.548 370.74H8V169.37c0-10.178 1.455-104.683 95.773-104.683 26.663 0 45.904 6.674 59.79 16.446 9.255 6.513 16.129 14.403 21.235 22.61 5.008 8.047 8.316 16.398 10.503 24.06 4.073 14.287 4.246 26.173 4.246 29.209V370.74z"/>
        </g>
        <g fill="#749233" transform="rotate(42 122.811 267.787)">
            <rect width="13.459" height="38.384" x="6.691" y="11.515" rx="6.73" transform="rotate(-20 13.42 30.707)"/>
            <rect width="13.459" height="38.384" x="44.937" y=".972" rx="6.73"/>
            <rect width="13.459" height="38.384" x="79.756" y="11.515" rx="6.73" transform="rotate(20 86.486 30.707)"/>
        </g>
    </g>
</svg>
