<svg xmlns="http://www.w3.org/2000/svg" width="20" height="20" viewBox="0 0 20 20">
    <g fill="none" fill-rule="evenodd">
        <rect width="140" height="40" fill="none" fill-opacity="0" rx="20" transform="translate(-20 -12)"/>
        <g fill="#656565">
            <path d="M9.004 16.25c-.43 0-.798.153-1.104.459a1.504 1.504 0 0 0-.458 1.103c0 .43.152.798.458 1.104.306.306.674.459 1.104.459.43 0 .797-.153 1.104-.459.305-.306.458-.674.458-1.104 0-.429-.153-.797-.458-1.103a1.507 1.507 0 0 0-1.104-.459M14.629 16.25c-.43 0-.798.153-1.104.459a1.504 1.504 0 0 0-.458 1.103c0 .43.152.798.458 1.104.306.306.674.459 1.104.459.43 0 .797-.153 1.104-.459.305-.306.458-.674.458-1.104 0-.429-.153-.797-.458-1.103a1.507 1.507 0 0 0-1.104-.459M19.785 5.234a.866.866 0 0 0-.234-.195.552.552 0 0 0-.274-.078H6.015L5 1.504C4.805.827 4.518.407 4.14.244 3.763.081 3.476 0 3.281 0H.605a.583.583 0 0 0-.429.175.607.607 0 0 0-.176.45.58.58 0 0 0 .176.43.58.58 0 0 0 .43.175H3.28c.052 0 .13.026.234.078.104.052.202.235.293.547L7.265 14.55c.04.131.114.238.225.323.11.085.231.127.361.127h8.438c.13 0 .25-.039.361-.118a.573.573 0 0 0 .225-.293L19.863 5.8a.745.745 0 0 0 .02-.293.637.637 0 0 0-.098-.273"/>
        </g>
    </g>
</svg>
