<svg xmlns="http://www.w3.org/2000/svg" xmlns:xlink="http://www.w3.org/1999/xlink" width="130" height="130" viewBox="0 0 130 130">
    <defs>
        <circle id="a" cx="65" cy="65" r="65"/>
    </defs>
    <g fill="none" fill-rule="evenodd">
        <mask id="b" fill="#fff">
            <use xlink:href="#a"/>
        </mask>
        <use fill="#D8D8D8" fill-opacity="0" xlink:href="#a"/>
        <path fill="#FFF6E0" d="M16.518 82.323a10.906 10.906 0 0 0-1.209-2.77 9.083 9.083 0 0 0-2.486-2.65C11.033 75.64 8.737 75 6 75-4.691 75-5 85.734-5 86.958v21.234c0 .508.412.92.92.92h5.979v6.15c.002.097.034.972.547 1.86.495.857 1.52 1.878 3.592 1.878 1.277 0 2.293-.372 3.021-1.105 1.023-1.03 1.043-2.357 1.042-2.498v-6.285h5.98a.92.92 0 0 0 .919-.92V85.655c0-.492-.047-1.803-.482-3.332M47.518 92.323a10.906 10.906 0 0 0-1.209-2.77 9.083 9.083 0 0 0-2.486-2.65C42.033 85.64 39.737 85 37 85c-10.691 0-11 10.734-11 11.958v21.234c0 .508.412.92.92.92h5.979v6.15c.002.097.034.972.547 1.86.495.857 1.52 1.878 3.592 1.878 1.277 0 2.293-.372 3.021-1.105 1.023-1.03 1.043-2.357 1.042-2.498v-6.285h5.98a.92.92 0 0 0 .919-.92V95.655c0-.492-.047-1.803-.482-3.332M76.518 112.323a10.906 10.906 0 0 0-1.209-2.77 9.084 9.084 0 0 0-2.486-2.65C71.033 105.64 68.737 105 66 105c-10.691 0-11 10.734-11 11.958v21.234c0 .508.412.92.92.92h5.979v6.15c.002.097.034.972.547 1.86.495.857 1.52 1.878 3.592 1.878 1.277 0 2.293-.372 3.021-1.105 1.023-1.03 1.043-2.357 1.042-2.498v-6.285h5.98a.92.92 0 0 0 .919-.92v-22.537c0-.492-.047-1.803-.482-3.332M108.518 102.323a10.906 10.906 0 0 0-1.209-2.77 9.083 9.083 0 0 0-2.486-2.65C103.033 95.64 100.737 95 98 95c-10.691 0-11 10.734-11 11.958v21.234c0 .508.412.92.92.92h5.979v6.15c.002.097.034.972.547 1.86.495.857 1.52 1.878 3.592 1.878 1.277 0 2.293-.372 3.021-1.105 1.023-1.03 1.043-2.357 1.042-2.498v-6.285h5.98a.92.92 0 0 0 .919-.92v-22.537c0-.492-.047-1.803-.482-3.332M46.31-19.447a9.083 9.083 0 0 0-2.487-2.65C42.033-23.36 39.737-24 37-24c-10.691 0-11 10.734-11 11.958V9.192c0 .508.412.92.92.92h5.979v6.15c.002.097.034.972.547 1.86.495.857 1.52 1.878 3.592 1.878 1.277 0 2.293-.372 3.021-1.105 1.023-1.03 1.043-2.357 1.042-2.498v-6.285h5.98a.92.92 0 0 0 .919-.92v-22.537c0-.492-.047-1.803-.482-3.332a10.906 10.906 0 0 0-1.209-2.77zM76.518 4.323a10.906 10.906 0 0 0-1.209-2.77 9.083 9.083 0 0 0-2.486-2.65C71.033-2.36 68.737-3 66-3 55.309-3 55 7.734 55 8.958v21.234c0 .508.412.92.92.92h5.979v6.15c.002.097.034.972.547 1.86.495.857 1.52 1.878 3.592 1.878 1.277 0 2.293-.372 3.021-1.105 1.023-1.03 1.043-2.357 1.042-2.498v-6.285h5.98a.92.92 0 0 0 .919-.92V7.655c0-.492-.047-1.803-.482-3.332M108.518-5.677a10.906 10.906 0 0 0-1.209-2.77 9.083 9.083 0 0 0-2.486-2.65C103.033-12.36 100.737-13 98-13 87.309-13 87-2.266 87-1.042v21.234c0 .508.412.92.92.92h5.979v6.15c.002.097.034.972.547 1.86.495.857 1.52 1.878 3.592 1.878 1.277 0 2.293-.372 3.021-1.105 1.023-1.03 1.043-2.357 1.042-2.498v-6.285h5.98a.92.92 0 0 0 .919-.92V-2.345c0-.492-.047-1.803-.482-3.332M140.518 24.323a10.906 10.906 0 0 0-1.209-2.77 9.083 9.083 0 0 0-2.486-2.65C135.033 17.64 132.737 17 130 17c-10.691 0-11 10.734-11 11.958v21.234c0 .508.412.92.92.92h5.979v6.15c.002.097.034.972.547 1.86.495.857 1.52 1.878 3.592 1.878 1.277 0 2.293-.372 3.021-1.105 1.023-1.03 1.043-2.357 1.042-2.498v-6.285h5.98a.92.92 0 0 0 .919-.92V27.655c0-.492-.047-1.803-.482-3.332" mask="url(#b)"/>
        <path fill="#FFF6E0" d="M47.518 38.323a10.906 10.906 0 0 0-1.209-2.77 9.083 9.083 0 0 0-2.486-2.65C42.033 31.64 39.737 31 37 31c-10.691 0-11 10.734-11 11.958v21.234c0 .508.412.92.92.92h5.979v6.15c.002.097.034.972.547 1.86.495.857 1.52 1.878 3.592 1.878 1.277 0 2.293-.372 3.021-1.105 1.023-1.03 1.043-2.357 1.042-2.498v-6.285h5.98a.92.92 0 0 0 .919-.92V41.655c0-.492-.047-1.803-.482-3.332" mask="url(#b)" transform="rotate(-180 37 53)"/>
        <path fill="#FFF6E0" d="M76.518 58.323a10.906 10.906 0 0 0-1.209-2.77 9.083 9.083 0 0 0-2.486-2.65C71.033 51.64 68.737 51 66 51c-10.691 0-11 10.734-11 11.958v21.234c0 .508.412.92.92.92h5.979v6.15c.002.097.034.972.547 1.86.495.857 1.52 1.878 3.592 1.878 1.277 0 2.293-.372 3.021-1.105 1.023-1.03 1.043-2.357 1.042-2.498v-6.285h5.98a.92.92 0 0 0 .919-.92V61.655c0-.492-.047-1.803-.482-3.332" mask="url(#b)" transform="rotate(-180 66 73)"/>
        <path fill="#FFF6E0" d="M108.518 48.323a10.906 10.906 0 0 0-1.209-2.77 9.083 9.083 0 0 0-2.486-2.65C103.033 41.64 100.737 41 98 41c-10.691 0-11 10.734-11 11.958v21.234c0 .508.412.92.92.92h5.979v6.15c.002.097.034.972.547 1.86.495.857 1.52 1.878 3.592 1.878 1.277 0 2.293-.372 3.021-1.105 1.023-1.03 1.043-2.357 1.042-2.498v-6.285h5.98a.92.92 0 0 0 .919-.92V51.655c0-.492-.047-1.803-.482-3.332" mask="url(#b)" transform="rotate(-180 98 63)"/>
        <path fill="#FFF6E0" d="M140.518 78.323a10.906 10.906 0 0 0-1.209-2.77 9.083 9.083 0 0 0-2.486-2.65C135.033 71.64 132.737 71 130 71c-10.691 0-11 10.734-11 11.958v21.234c0 .508.412.92.92.92h5.979v6.15c.002.097.034.972.547 1.86.495.857 1.52 1.878 3.592 1.878 1.277 0 2.293-.372 3.021-1.105 1.023-1.03 1.043-2.357 1.042-2.498v-6.285h5.98a.92.92 0 0 0 .919-.92V81.655c0-.492-.047-1.803-.482-3.332" mask="url(#b)" transform="rotate(-180 130 93)"/>
        <path fill="#FFF6E0" d="M16.518 28.323a10.906 10.906 0 0 0-1.209-2.77 9.083 9.083 0 0 0-2.486-2.65C11.033 21.64 8.737 21 6 21-4.691 21-5 31.734-5 32.958v21.234c0 .508.412.92.92.92h5.979v6.15c.002.097.034.972.547 1.86C2.941 63.98 3.966 65 6.038 65c1.277 0 2.293-.372 3.021-1.105 1.023-1.03 1.043-2.357 1.042-2.498v-6.285h5.98a.92.92 0 0 0 .919-.92V31.655c0-.492-.047-1.803-.482-3.332" mask="url(#b)" transform="rotate(-180 6 43)"/>
    </g>
</svg>
