<svg xmlns="http://www.w3.org/2000/svg" width="44" height="29" viewBox="0 0 44 29">
    <path fill="#94CD93" fill-rule="evenodd" d="M32.041 17.072c-.979-1.23-.036-2.305-.036-2.305 1.259-1.028 2.47.962 2.505 1.702.035.74-1.49 1.835-2.469.603m-2.645 6c-.895.013-2.694-2.928-.694-3.16.592-.07 1.686.543 1.745 1.29.058.748-.155 1.858-1.05 1.87m-5.39-4.465c-.672-.844-.026-1.58-.026-1.58.864-.706 1.694.66 1.719 1.167.024.507-1.022 1.258-1.694.413m-2.717 6.788c-1.088.29-3.518-1.503-2.188-3.281 1.33-1.778 3.427-.799 3.427-.799 2.192 1.44-.151 3.79-1.24 4.08m17.09-16.862C35.77 6.33 30.03-.496 19.698.343c-10.332.84-15.26 9.448-16.003 10.851-.714 1.35-3.458 2.204-3.409 4.304.028 1.183 2.818 2.17 4.175 2.8 1.356.63 1.182 10.14 16.862 10.044 15.18-.092 17.681-11.094 18.412-12.403.73-1.307 3.688-1.632 3.652-3.73-.035-2.04-2.4-1.47-5.009-3.676"/>
</svg>
