<svg xmlns="http://www.w3.org/2000/svg" width="29" height="30" viewBox="0 0 29 30">
    <path fill="#846B7E" fill-rule="evenodd" d="M24.791 1.427c.123.062.342.262.591.9-.06.51-2.595 2.793-3.619 3.449a2.471 2.471 0 0 1-.339-.21c.302-.762 2.595-3.586 3.367-4.139m-.793 4.294c.936-.801 1.887-1.744 2.273-2.308.403-.588.521-1.08.36-1.507C26.164.668 25.53.068 24.693.068c-.943 0-3.548 3.493-3.574 3.528l-.094.132a14.748 14.748 0 0 0-6.657-1.586C6.433 2.142 0 8.304 0 15.906c0 7.602 6.433 13.765 14.368 13.765 7.935 0 14.367-6.163 14.367-13.765 0-4.045-1.836-7.667-4.737-10.185"/>
</svg>
