<svg xmlns="http://www.w3.org/2000/svg" width="80" height="54" viewBox="0 0 80 54">
    <g fill="none" fill-rule="evenodd">
        <path fill="#E7AF3D" d="M50.655 43.341a1.12 1.12 0 0 1 .09-1.444c.838-.581 1.498.724 1.484 1.189-.014.465-1.021 1.074-1.574.255m-1.063-11.303c.206-.968 1.1-.934 1.1-.934.996.208.514 1.59.171 1.901-.343.311-1.477 0-1.27-.967m-2.758 7.456c-1.3 0-2.117-3.582-.577-4.066.58-.183 1.49.387 1.684 1.598.07.44.192 2.468-1.107 2.468m-.55 5.173c-.16.667-.757 1.867-1.432 1.228-.677-.642-.399-3.764.755-3.564.75.13.836 1.67.677 2.336m-3.3 4.624c-.343.311-1.477 0-1.271-.968.206-.967 1.1-.933 1.1-.933.996.207.515 1.59.171 1.901M39.81 38.997c-.866-.057-2.382-3.033-.433-3.107.576-.021 1.587.654 1.587 1.38 0 .727-.289 1.783-1.154 1.727m-1.925 6.452c-.481.435-2.07 0-1.78-1.356.288-1.355 1.54-1.306 1.54-1.306 1.394.29.72 2.227.24 2.662m1.254-36.482c.13-.31.235-.558.301-.722a.19.19 0 0 1 .035-.003c.567-.02 1.544.39 1.664.61.054.474-1.271 3.816-2.824 6.011-.689.975-1.005 1.092-.99 1.094-.32 0-.507-.034-.607-.064.155-1.566 1.791-5.437 2.42-6.926M28.936 49.025c-.77-1.49.212-2.157.212-2.157 1.267-.511 2.168 1.766 2.122 2.466-.047.7-1.566 1.181-2.334-.309m10.738-33.982c.07-.107.133-.199.206-.317.608-.99 2.944-5.232 2.385-6.358-.45-.904-2.029-1.434-2.862-1.361-.733.043-.98.44-1.062.67-.04.115-.162.396-.334.805-.59 1.398-1.65 3.91-2.191 5.794-.421-.075-.84-.15-1.27-.22-9.577-1.557-22.307 4.51-24.897 18.33-2.201 11.738 8.634 20.991 19.364 21.453 10.731.462 27.896-1.002 28.231-17.346.291-14.198-6.793-18.987-17.57-21.45"/>
        <path fill="#986420" d="M79.335 28.37c-2.134-3.186-8.976-5.145-15.593-7.04-5.256-1.504-10.692-3.06-11.338-4.837-.323-.888-.627-2.041-.978-3.378C50.082 8.007 48.24 1.01 42.862.077c-4.408-.782-9.637 4.537-13.457 8.409-1.162 1.177-2.165 2.193-2.98 2.879-1.58 1.33-7.64 1.353-12.988 1.373-4.951.02-9.63.036-11.927.91-.379.145-1.535.584-1.51 1.497.02.723.689 1.759 5.723 3.363 14.362 4.578 57.45 11.132 70.12 11.131 1.982 0 3.222-.16 3.488-.514.167-.221.168-.511.004-.756"/>
        <path fill="#FFF6E0" d="M74.238 27.16c-.219-.017-20.058-1.584-23.577-8.786.342-.014.683-.01 1.026-.034a.448.448 0 0 0 .418-.479.438.438 0 0 0-.479-.418c-.431.03-.863.048-1.295.062a5.035 5.035 0 0 1-.208-1.395c0-9.051-5.06-13.874-5.274-14.073a.45.45 0 0 0-.613.656c.05.047 4.988 4.752 4.988 13.417 0 .492.073.96.185 1.414a41.476 41.476 0 0 1-2.53-.062c.917-5.974-2.888-14.303-3.052-14.658a.45.45 0 1 0-.816.378c.04.084 3.894 8.512 2.97 14.225a53.017 53.017 0 0 1-6.253-.849c.615-5.556 3.035-11.604 3.059-11.665a.45.45 0 0 0-.25-.586.453.453 0 0 0-.583.25c-.026.061-2.467 6.164-3.109 11.824-2.188-.46-4.176-1-5.857-1.518 3.235-8.269 9.515-11.435 9.58-11.467a.448.448 0 1 0-.394-.807c-.276.133-6.689 3.352-10.046 12.005a68.934 68.934 0 0 1-1.733-.586 7.469 7.469 0 0 0 1.577-2.701c2.66-8.018 10.854-9.421 10.937-9.435a.451.451 0 0 0 .373-.515.451.451 0 0 0-.515-.373c-.087.015-8.812 1.493-11.648 10.04a6.595 6.595 0 0 1-1.652 2.648 39.635 39.635 0 0 1-1.896-.75.449.449 0 1 0-.364.822c.025.01.552.24 1.478.594-3.208 2.382-9.83 3.516-23.093.473a.448.448 0 1 0-.2.875c4.473 1.028 9.406 1.84 13.822 1.84 4.267 0 8.046-.764 10.464-2.82.605.219 1.306.46 2.091.714-1.903 4.073-7.258 4.73-7.314 4.737a.45.45 0 0 0 .099.894c.252-.028 6.013-.73 8.078-5.358a67.42 67.42 0 0 0 6.09 1.576c-.768 4.787-4.022 5.894-4.165 5.94a.45.45 0 1 0 .269.858c.166-.052 3.909-1.291 4.775-6.62 1.988.384 4.113.694 6.301.855-.098 5.678 9.346 8.137 9.766 8.243a.45.45 0 0 0 .22-.87c-.095-.026-9.088-2.366-9.085-7.316.77.04 1.545.065 2.324.065.19 0 .38-.015.57-.018 3.322 7.976 23.54 9.58 24.475 9.65l.033.001a.448.448 0 0 0 .033-.898"/>
    </g>
</svg>
