<svg id="圖層_1" xmlns="http://www.w3.org/2000/svg" viewBox="0 0 154 119"><style>.st0{fill:#e6e6e6}</style><path class="st0" d="M21.9 35.6l-3.1-20.8h-5.5l-3.1 20.8-2.3-20.8H2.4l5.2 29.4h5.2L16 23.4l3.3 20.8h5.2l5.2-29.4h-5.5zm9.9-20.8v29.4h5V31.9h4.1v12.3h5V14.8h-5v11.8h-4.1V14.8zm18 0h5v29.4h-5zm15.1 24.5c-.8 0-1.3-.3-1.5-.7-.5-.6-.5-1.5-.5-2.7h-5c0 3 .4 5.1 1.7 6.5 1.1 1.3 3 2.1 5.4 2.1 2.4 0 4.3-.9 5.4-2.2 1.3-1.5 1.6-3.5 1.6-6.5 0-5.3-.9-7-4.1-8.5l-3.1-1.5c-1.4-.7-1.7-1.2-1.7-3.1 0-1 .1-1.6.4-2.1.3-.5.7-.8 1.4-.8s1.2.3 1.4.7c.4.7.4 1.6.4 2.6h5c0-3-.6-5.3-1.9-6.8-1.1-1.2-2.7-1.9-4.9-1.9-1.9 0-3.4.7-4.6 1.9C58.8 18 58 20.2 58 23c0 4.6 1.1 6.1 3.6 7.4l3.2 1.5c1.8.9 2.2 1.4 2.2 4.2 0 1.2-.1 2-.5 2.5-.4.4-.9.7-1.6.7zm24.9-24.5h-5L80 27.5V14.8h-4.9v29.4H80v-6.8l1.7-3.9 3.5 10.7h5.4L84.8 27zm9.3 10.7l-2.2-10.7h-5.4l5.1 18.4v11h4.9v-11l5.1-18.4h-5.4zM13.2 80.1l5.6-29.4h-5.5l-2.7 20.8-2.7-20.8H2.4L8 80.1zm11-29.4l-6.4 29.4H23l.8-4.6h5.8l.8 4.6h5.2l-6.4-29.4h-5zm.5 19.5l1.9-10.9 1.9 10.9h-3.8zm21.2 2.3c0 1.9-.9 2.6-2.1 2.6-1.1 0-2.1-.7-2.1-2.6V50.7h-5v21.5c0 2.4.7 4.3 1.9 5.8 1.3 1.6 3.1 2.4 5.2 2.4s3.9-.8 5.2-2.4c1.2-1.4 1.9-3.4 1.9-5.8V50.7h-5v21.8zm13.7-21.8h-5v29.4h11.5v-5.3h-6.5zm6.3 5.3h4.2v24.1h5V56h4.2v-5.3H65.9zM4.1 110h5.3v6.2H4.1zm7.8-17.9h4.2v24.1h5V92.1h4.2v-5.3H11.9zm34.4 15.5l-3.1-20.8h-5.5l-3 20.8-2.4-20.8h-5.5l5.3 29.4h5.2l3.2-20.8 3.2 20.8h5.2l5.3-29.4h-5.5z"/><path class="st0" d="M131.6 86.6c.4 1 2.3 1.2 4.4.5 2.1-.7 3.5-2.1 3.2-3.1l-.9-2.6-3.2-9.2h.3l1.8-5.6c-2-.5-3.7-1.9-4.7-3.7h-2.6c-2.2 0-4-1.8-4-4.1s1.8-4.1 4-4.1h1.8c-1.1.1-2.9 2.1-2.9 4.1 0 2.1 2 4.1 3.1 4.1h.8c-.6-1.2-1-2.6-1-4 0-1.5.4-3 1.1-4.2 1-1.7 2.7-3 4.6-3.5l-1.8-5.8h-.6l2.9-8.3.3-1 .9-2.6c.3-1-1.1-2.4-3.2-3.1-2.1-.7-4.1-.5-4.4.5l-3.7 10.4-1.4 4h-7.3V1.2H2.4v8h108.4v107h8.4v-44h7.3l4 11.4.2.5.9 2.5z"/><path class="st0" d="M152.3 109.2l-5.7-16.4c-.2-.4-.5-.8-.9-1.1l-4-4.7c.2 3.7-.8 6.6-2.9 7.3-2.2.8-5-1.1-7.3-4.6l-.1 7.3v.7c0 .1 0 .2.1.3 0 .1.1.2.1.2l5.6 16.2c.7 2 4.6 2.4 8.8.9 4.1-1.4 6.9-4.1 6.3-6.1zm-20.9-88.7l.1 7.3c2.3-3.5 5.1-5.4 7.3-4.6 2.1.7 3.1 3.6 2.9 7.3l4-4.7c.4-.3.8-.6.9-1.1l5.7-16.4c.7-2-2.1-4.7-6.3-6.2-4.2-1.4-8.1-1-8.8.9l-5.6 16.2c0 .1-.1.2-.1.2 0 .1-.1.2-.1.3-.1.3-.1.5 0 .8z"/><ellipse class="st0" cx="145.4" cy="58.8" rx="7" ry="7.9"/></svg>