<svg id="圖層_1" xmlns="http://www.w3.org/2000/svg" viewBox="0 0 249 117"><style>.st0{fill:#fff}</style><path class="st0" d="M169.4 52.7c-.5-1.9-1.3-3.2-2.3-3.2v12.7c1 0 1.8-1.3 2.3-3.2v3.2h23.4V60h-16.2c-1.2 0-2.1-.9-2.1-2.1 0-1.2.9-2.1 2.1-2.1h16.2v-6.5h-23.4v3.4zm24.9-3.5V62c5.4 0 9.8-2.9 9.8-6.4 0-3.5-4.4-6.4-9.8-6.4zm-46.8 3.7H164v1h-16.5zm5.6 3.5H164v1h-10.9z"/><path class="st0" d="M185.2 6c-27.4 0-49.8 22.3-49.8 49.8s22.3 49.8 49.8 49.8c27.4 0 49.8-22.3 49.8-49.8S212.7 6 185.2 6zm-41 49.7c0-1.8.1-3.5.3-5.2H164v-1h-19.4c3-19.7 20-34.9 40.6-34.9 10.2 0 19.5 3.7 26.7 9.9v62.3c-7.2 6.2-16.5 9.9-26.7 9.9-22.6.1-41-18.3-41-41zm69.9 29.2V26.6c7.5 7.4 12.2 17.8 12.2 29.1 0 11.4-4.7 21.7-12.2 29.2zM54.5 6C27.1 6 4.7 28.3 4.7 55.7c0 27.4 22.3 49.8 49.8 49.8 27.4 0 49.8-22.3 49.8-49.8C104.3 28.3 82 6 54.5 6zm0 90.8c-22.6 0-41-18.4-41-41s18.4-41 41-41 41 18.4 41 41-18.4 41-41 41z"/><path class="st0" d="M45.3 57c0 1.8-1.5 3.3-3.3 3.3-1.8 0-3.3-1.5-3.3-3.3V29.2H30V57c0 6.6 5.4 11.9 11.9 11.9S54 63.6 54 57V29.2h-8.7V57zm23.3-13.3H60v38.9h19.3V74H68.6z"/><path fill="none" d="M508.9 216h810.6v454.1H508.9z"/><text transform="translate(508.882 234.466)"><tspan x="0" y="0" class="st0" font-family="KozGoPr6N-Regular-83pv-RKSJ-H" font-size="21">・</tspan><tspan x="21" y="0" class="st0" font-family="Futura-Medium" font-size="21"> BULLET PROOF WINDOW</tspan><tspan x="0" y="70" class="st0" font-family="KozGoPr6N-Regular-83pv-RKSJ-H" font-size="21">・</tspan><tspan x="21" y="70" class="st0" font-family="Futura-Medium" font-size="21"> SOLID STEEL PLATE CONSTRUCTION</tspan><tspan x="0" y="140" class="st0" font-family="KozGoPr6N-Regular-83pv-RKSJ-H" font-size="21">・</tspan><tspan x="21" y="140" class="st0" font-family="Futura-Medium" font-size="21"> THREE 25mm VAULT DOOR LOCKING BOLTS</tspan><tspan x="0" y="210" class="st0" font-family="KozGoPr6N-Regular-83pv-RKSJ-H" font-size="21">・</tspan><tspan x="21" y="210" class="st0" font-family="Futura-Medium" font-size="21"> TRI-SPOKE HANDLE MACHINED FROM AIRCRAFT ALUMINUM</tspan><tspan x="0" y="280" class="st0" font-family="KozGoPr6N-Regular-83pv-RKSJ-H" font-size="21">・</tspan><tspan x="21" y="280" class="st0" font-family="Futura-Medium" font-size="21"> UL CERTIFIED LA GARD ELECTRONIC LOCK SYSTEM</tspan><tspan x="0" y="350" class="st0" font-family="KozGoPr6N-Regular-83pv-RKSJ-H" font-size="21">・</tspan><tspan x="21" y="350" class="st0" font-family="Futura-Medium" font-size="21"> SOLID EXOTIC WOOD CABINET WITH 800kg CAPACITY LEVELING CASTERS </tspan><tspan x="0" y="420" class="st0" font-family="KozGoPr6N-Regular-83pv-RKSJ-H" font-size="21">・</tspan><tspan x="21" y="420" class="st0" font-family="Futura-Medium" font-size="21"> INDIVIDUALLY NUMBERED / CUSTOM BUILT TO ORDER</tspan></text></svg>