<svg id="圖層_1" xmlns="http://www.w3.org/2000/svg" viewBox="0 0 98 76"><style>.st0{fill:#fff}</style><path class="st0" d="M15.4 23.6l-1.9-12.4h-3.3L8.4 23.6 7 11.2H3.7l3.1 17.6h3.1l2-12.5 1.9 12.5h3.1l3.2-17.6h-3.3zm5.9-12.4v17.6h3v-7.4h2.5v7.4h3V11.2h-3v7h-2.5v-7zm10.8 0h3v17.6h-3zm9.1 14.6c-.5 0-.8-.2-.9-.4-.3-.4-.3-.9-.3-1.6h-3c0 1.8.3 3 1 3.9.7.8 1.8 1.3 3.2 1.3 1.5 0 2.6-.5 3.3-1.3.8-.9 1-2.1 1-3.9 0-3.2-.5-4.2-2.4-5.1l-1.9-.9c-.9-.4-1-.7-1-1.9 0-.6.1-1 .3-1.3.2-.3.4-.5.9-.5.4 0 .7.2.9.4.3.4.3 1 .3 1.6h3c0-1.8-.3-3.2-1.2-4.1-.7-.7-1.6-1.1-3-1.1-1.1 0-2 .4-2.8 1.1-.9.9-1.3 2.3-1.3 3.9 0 2.7.6 3.7 2.1 4.4l1.9.9c1.1.5 1.3.8 1.3 2.5 0 .7-.1 1.2-.3 1.5-.4.5-.6.6-1.1.6zm14.9-14.6h-3l-2.8 7.5v-7.5h-3v17.6h3v-4.1l1-2.3 2.1 6.4h3.2l-3.5-10.3zm5.6 6.3l-1.3-6.3h-3.3l3.1 11v6.6h3v-6.6l3.1-11H63zM10.2 50.3l3.3-17.6h-3.3L8.6 45.1 7 32.7H3.7L7 50.3zm6.6-17.6l-3.9 17.6H16l.5-2.7H20l.5 2.7h3.1l-3.9-17.6h-2.9zm.3 11.7l1.2-6.5 1.2 6.5h-2.4zm12.7 1.4c0 1.1-.6 1.6-1.2 1.6-.7 0-1.2-.4-1.2-1.6V32.7h-3v12.9c0 1.4.4 2.6 1.1 3.5.8 1 1.9 1.5 3.1 1.5 1.3 0 2.3-.5 3.1-1.5.7-.9 1.1-2.1 1.1-3.5V32.7h-3v13.1zM38 32.7h-3v17.6h6.9v-3.2H38zm3.8 3.2h2.5v14.4h3V35.9h2.6v-3.2h-8.1zM4.7 68.3h3.2V72H4.7zm4.7-10.8h2.5V72h3V57.5h2.5v-3.1h-8zm20.7 9.3l-1.9-12.4h-3.3l-1.8 12.4-1.5-12.4h-3.2L21.5 72h3.1l2-12.5L28.5 72h3.1l3.2-17.6h-3.3z"/><path class="st0" d="M81.2 54.2c.2.6 1.4.7 2.6.3 1.3-.4 2.1-1.3 1.9-1.9l-.5-1.5-1.9-5.5h.2l1.1-3.4c-1.2-.3-2.2-1.1-2.8-2.2h-1.6c-1.3 0-2.4-1.1-2.4-2.5s1.1-2.5 2.4-2.5h1.1c-.7.1-1.8 1.3-1.8 2.5s1.2 2.5 1.8 2.5h.5c-.4-.7-.6-1.5-.6-2.4 0-.9.2-1.8.6-2.5.6-1 1.6-1.8 2.8-2.1l-1.1-3.5h-.2l1.7-5 .2-.6.5-1.5c.2-.6-.6-1.4-1.9-1.9-1.3-.4-2.4-.3-2.6.3L79 27l-.8 2.4h-4.4V3H3.7v4.8h65V72h5V45.6h4.4l2.4 6.9.1.3.6 1.4z"/><path class="st0" d="M93.6 67.8l-3.4-9.9c-.1-.3-.3-.5-.6-.7l-2.4-2.8c.1 2.2-.5 4-1.7 4.4-1.3.5-3-.7-4.4-2.8l-.1 4.4v.6c0 .1 0 .1.1.1l3.4 9.7c.4 1.2 2.8 1.4 5.3.6 2.5-.8 4.2-2.4 3.8-3.6zM81.1 14.5l.1 4.4c1.4-2.1 3.1-3.2 4.4-2.8 1.2.4 1.8 2.2 1.7 4.4l2.4-2.8c.3-.2.5-.4.6-.7l3.4-9.9c.3-1.1-1.4-2.7-3.9-3.6-2.5-.9-4.9-.6-5.3.6l-3.4 9.7s0 .1-.1.1v.2c.1.2.1.3.1.4z"/><ellipse class="st0" cx="89.5" cy="37.5" rx="4.2" ry="4.8"/></svg>