<svg xmlns="http://www.w3.org/2000/svg" xmlns:xlink="http://www.w3.org/1999/xlink" width="218" height="218" viewBox="0 0 218 218">
    <defs>
        <path id="a" d="M41.424 86.242H.727V.542h40.697v85.7z"/>
    </defs>
    <g fill="none" fill-rule="evenodd">
        <path fill="#FFF" d="M166.95 36.585l8.58-6.702c1.012-.79 1.267-2.143.462-3.18-.807-1.027-2.187-1.117-3.189-.326l-8.605 6.697c-1.003.784-1.244 2.138-.446 3.175.81 1.036 2.171 1.12 3.198.336M52.167 88.658c9.369-3.902 18.715-14.416 20.357-18.83 1.635-4.426.97-10.482-2.528-10.087-4.438.5-6.455 1.6-9.204 4.913-2.751 3.317-6.917 7.04-9.666 10.361-2.754 3.329-8.044 5.883-10.616 7.278-2.57 1.4-4.58 2.084-7.038 4.864-3.163 3.575 9.335 5.398 18.695 1.501M127.94 56.377c-4.401.563-5.506.57-7.153 2.238-3.586 3.617-2.732 8.281-.518 9.93 2.214 1.652 17.14 12.078 22.123 17.58 4.988 5.502 11.074 7.135 16.582 6.566 5.522-.574 9.899-12.731 5.466-16.023-4.422-3.295-8.853-5.486-13.829-8.782-4.98-3.29-10.495-3.821-13.819-6.57-3.313-2.75-4.427-5.503-8.853-4.939M93.404 81.756c-.847-.179-2.379-.337-2.859-1.185-1.167-2.09 1.437-2.76 2.997-2.764 2.253-.006 6.033 1.674 6.176 3.253.164 1.606-2.596 1.496-6.314.696m1.282 14.826c-2.327.88-5.953-1.448-8.827-1.884-2.867-.438-3.324-1.87-2.521-3.46.862-1.68 2.79-.422 6.608.437 3.828.858 7.061 4.028 4.74 4.907m7.723-27.958c-3.01-.96-6-1.916-9.508-2.38-3.478-.463-7.53-1.406-9.678 1.963-3.107 4.872-9.014 18.028-10.205 21.351-1.238 3.397-2.487 8.055.726 11.03 3.28 3.06 4.636 5.53 8.63 6.803 4.018 1.27 8.078 2.559 12.79 3.207 4.75.663 9.03-3.16 10.02-6.276.959-3.076 1.782-12.5 4.96-17.001 3.1-4.382 5.945-9.673 6.737-12.257.767-2.534-1.144-6.96-4.639-6.951-3.5.01-6.806 1.48-9.833.511"/>
        <g transform="translate(76.66 130.977)">
            <mask id="b" fill="#fff">
                <use xlink:href="#a"/>
            </mask>
            <path fill="#FFF" d="M37.367 41.023c-.332-1.448-2.518-3.55-4.153-4.717-3.31-2.36-7.785-3.402-8.1-5.566-.457-3.218-.901-6.94 1.763-10.172 1.61-2.112 5.873-2.66 10.326-3.596 3.954-.843 4.624-6.329 4.036-9.5-.698-3.71-9.971-1.194-13.982-.252-4.003.939.425-8.313-7.6-6.423-1.852.426-3.747 1.253-4.928 2.833-.68.895-.96 1.969-1.163 3.075-.211 1.037-.351 2.11-.719 3.085-.661 1.763-2.009 2.501-3.724 2.95-3.568.93-7.182 3.727-6.674 6.48 1.291 6.987 10.157 2.337 10.6 5.108.353 2.084.205 6.638-1.376 10.545-.532 1.306-1.605 2.106-2.496 3.137-1.804 2.101-6.462 6.734-8.027 9.395-.701 1.183-.395 2.064-.046 2.743.587 1.094 1.384.973 2.453 1.205 4.022.917 9.15-1.195 9.162 1.58.01 2.753.33 28.616.999 31.949.769 3.828 7.614-1.168 8.932-5.781 1.321-4.608 1.677-30.118 3.011-32.428.607-1.059 1.633-1.943 3.518-2.465 1.677-.447 5.687.536 7.309-.8.194-.142.985-1.574.88-2.385" mask="url(#b)"/>
        </g>
        <path fill="#FFF" d="M80.23 125.319c-.11-2.933-1.794-5.066-5.235-5.555-5.037-.72-8.095-1.542-14.04-1.395-5.94.138-11.406.569-16.06.169-4.658-.395-14.79-2.613-23.58-3.807-6.493-.879-12.445.548-17.236 5.56-5.582 5.801-5.5 11.35.646 16.638 4.995 4.301 11.075 5.776 17.483 5.971 6.91.21 13.182-2.423 19.457-4.84 6.58-2.532 13.27-4.49 20.37-4.57 1.564-.014 3.294.143 4.66.823 6.44 3.185 13.816-1.648 13.536-8.994M62.182 18.252a.26.26 0 0 1 .07.036c1.245.495 2.59.348 3.902.275 1.745-.127 3.465-.132 5.205-.075 1.903.059 3.785 0 5.685-.005 4.97-.02 12.133-1.142 13.799.506 1.662 1.648 2.215 3.301-.538 3.312-2.76.01-22.625 1.737-24.832 2.29-2.196.564-5.507 2.78-4.386 6.097 1.112 3.302 2.224 4.402 6.635 4.386 4.417-.017 18.764-.621 20.976.48 2.206 1.09.56 4.412-6.605 4.985-7.173.58-16.009-1.596-17.656 2.28-1.637 3.864-2.18 6.629 5.55 8.25 7.734 1.622 30.892-.668 39.17-.695 8.288-.031 16.57.496 18.76-.615 2.21-1.111 4.942-6.087 2.731-7.74-2.201-1.642-7.177-3.28-13.243-3.26-2.22.012-4.464-.483-6.651-.12-6.818 1.138-6.165-1.428-6.214-2.144-.067-1.12.856-1.12 1.813-1.004 4.417.53 19.32-.07 23.18-.085 3.862-.01 6.054-2.233 6.047-4.986-.011-2.76-2.225-6.618-8.295-6.598-6.079.022-18.763 1.175-20.422-.473-1.663-1.654-2.225-4.966 3.285-4.428 5.523.52 24.826.462 28.698.995 3.883.543 7.708-4.991 6.045-9.4-1.678-4.412-33.676-3.742-36.437-4.285-2.76-.541-3.467-6.06-9.683-6.033-8.831.03-5.22 4.433-10.74 4.454-5.514.016-12.69.042-19.308.069-6.627.021-11.585 2.248-11.02 6.655.348 2.659 1.901 5.807 4.479 6.876M195.412 98.414c-1.269.258-2.092 1.348-1.839 2.637.253 1.286 1.436 1.97 2.693 1.738l5.331-1.073c2.224-.448 2.854.067 3.792 1.86.796 1.504 1.385 2.578 2.909 2.278a2.297 2.297 0 0 0 1.806-2.691c-.243-1.242-1.269-2.143-2.284-2.684a2.404 2.404 0 0 0 .969-2.464c-.255-1.291-1.439-1.98-2.705-1.733l-10.672 2.132zM208.236 108.139l-10.836 1.185c-1.284.137-2.204 1.158-2.052 2.47.14 1.3 1.254 2.094 2.54 1.958l10.832-1.19c1.283-.142 2.202-1.164 2.045-2.47-.135-1.305-1.258-2.105-2.529-1.953M180.76 26.36a2.655 2.655 0 0 0 .451-3.722 2.655 2.655 0 0 0-3.729-.463 2.659 2.659 0 0 0-.451 3.727 2.656 2.656 0 0 0 3.729.458M192.44 67.686c.18 2.755.55 4.507-.881 5.092-.91.374-2.024.105-2.687-1.558-.886-2.202-.357-4.018-.778-5.07-.529-1.29-1.932-1.559-3.084-1.09-2.117.847-1.563 5.053-.547 7.566 1.61 3.996 4.86 6.413 9.187 4.66 3.584-1.44 3.86-4.171 3.704-6.803-.216-3.36-.515-4.47.56-4.913.932-.368 1.856.18 2.317 1.338.744 1.832.216 2.563.771 3.944.45 1.137 1.622 1.562 2.77 1.089 1.645-.653 2.067-3.043.688-6.482-1.438-3.569-4.669-5.991-8.78-4.343-3.394 1.374-3.436 4.058-3.24 6.57M163.59 177.103c-.473-3.675 7.192-8.2 7.152-19.261-.04-11.067-2.402-15.001-8.684-15.633-6.578-.657-7.87.06-8.448-2.147-.012-2.98-1.038-6.492.373-7.908.752-.77 4.865-1.828 8.485-2.354 3.108-.442 5.698-.61 6.962-1.316 1.418-.785 1.672-3.202 1.3-4.576-.4-1.48-.87-3.16-2.302-3.985-1.1-.617-2.318-1.059-3.546-1.08-3.072-.031-5.563.98-8.63.874-.74-.021-2.148.1-2.745-.5-1.399-1.374-.486-6.902-5.08-6.491-1.07.094-4.624.483-5.321 1.084-1.046.9-1.194 2.753-1.238 4.076-.023.762-.015 1.399-.147 1.91-.19.695-.622 1.17-1.768 1.417-1.367.3-2.74.478-4.118.636-3.152.358-6.515.579-9.533 1.623-1.071.362-2.43.863-2.909 2.005-.92 2.159.626 10.905 9.525 8.878 3.844-.875 9.056-1.006 9.31 1.326.695 6.44.03 7.113-2.743 7.85-2.988.785-8.034 1.09-9.497 3.107-.68.938-.876 2.906-.432 5.144.837 4.064 7.535 3.254 10.761 2.328 3.22-.938 9.66-3.33 12.44-2.343 2.711.942 5.188 3.349 3.86 8.76-1.748 7.067-7.337 10.326-10.582 9.51-7.709-2-10.16-3.44-13.847-3.428-3.68.015-5.512 3.718-5.044 6.95.478 3.218 6.013 5.508 6.02 7.35.007 1.838-5.525 5.092-10.586 5.57-5.066.48-11.99-1.337-12.444 1.437-.45 2.765 5.848 11.52 11.842 11.5 5.99-.021 13.775-3.349 17.457-5.208 3.694-1.853 6.67-5.97 8.525-4.596 1.303.98 13.681 10.889 23.283 16.775l19.224-16.216s.003.221.86-.512c-.5-.088-.971-.152-1.418-.194-5.52-.432-25.84-8.661-26.317-12.362M217.356 109.366c-.17-1.453-1.456-2.518-2.934-2.349a2.66 2.66 0 0 0-2.353 2.928 2.656 2.656 0 0 0 2.933 2.348 2.656 2.656 0 0 0 2.354-2.927M198.846 89.995c-1.976.596-3.91.042-4.48-1.848-.562-1.884.762-3.407 2.735-3.996 1.965-.58 3.915-.042 4.47 1.848.578 1.885-.76 3.422-2.725 3.996m4.283-7.782c.567-.5 1.08-1.369.768-2.395-.365-1.27-1.607-1.849-2.852-1.485l-16.334 4.87c-1.235.368-1.956 1.527-1.572 2.786.364 1.257 1.605 1.847 2.838 1.474l4.622-1.375c-.402.958-.7 2.054-.16 3.882 1.112 3.726 5.38 5.575 9.673 4.3 4.279-1.273 6.851-5.159 5.75-8.883-.48-1.614-1.27-2.574-2.733-3.174M209.949 121.618a2.366 2.366 0 0 0 1.521-2.159c.04-1.32-.944-2.264-2.23-2.321l-10.89-.395c-1.282-.058-2.335.815-2.394 2.12-.034 1.313.953 2.266 2.233 2.313l7.04.273c1.543.053 2.645 1.006 2.594 2.549-.066 1.538-1.239 2.406-2.778 2.347l-7.035-.257c-1.29-.058-2.339.816-2.405 2.122-.04 1.317.948 2.274 2.23 2.316l8.245.311c3.646.132 5.324-2.248 5.44-5.334.083-1.9-.483-3.127-1.571-3.885M204.482 142.673c-.604 1.885-2.567 2.385-4.514 1.77-2.07-.663-3.307-2.195-2.715-4.076.592-1.869 2.501-2.402 4.564-1.737 1.96.622 3.266 2.174 2.665 4.043m-1.313-8.282c-3.834-1.231-8.047-.327-9.35 3.791-.447 1.406-.601 3.033.408 4.365l-.02.052c-2.368-.748-3.468-2.09-2.62-4.711.789-2.486 2.283-2.876 2.676-4.097.264-.842-.339-2.048-1.291-2.354-2.302-.736-4.46 3.123-5.17 5.328-1.315 4.16-.417 8.33 5.001 10.063l11.01 3.506c1.207.395 2.46-.174 2.856-1.416.334-1.031-.167-1.918-.707-2.417 1.46-.585 2.263-1.521 2.78-3.128 1.19-3.696-1.308-7.628-5.573-8.982M173.126 35.606c-3.722 2.485-5.02 6.956-2.531 10.705.985 1.473 3.647 3.911 5.498 2.684.778-.531 1.183-1.758.624-2.61-.368-.55-1.51-.86-2.555-2.45-1.097-1.626-.266-3.49 1.436-4.627 1.695-1.137 3.713-1.211 4.953.663.971 1.448.54 2.121 1.168 3.069.565.859 1.745 1.026 2.746.364 1.962-1.306.622-4.355-.48-6.019-2.516-3.749-7.135-4.264-10.86-1.779M188.737 52.786c.807 1.537-.135 3.339-1.01 3.807l-2.716-5.09c.879-.464 2.912-.254 3.726 1.283m-7.376-4.755c-3.98 2.107-5.702 6.429-3.444 10.658 1.577 2.97 4.546 5.497 6.448 4.469 1.01-.537 1.302-1.648.828-2.526-.482-.912-2.354-1.438-3.38-3.376-1.353-2.522-.333-3.87.503-4.316l3.787 7.103c.678 1.252 1.345 1.736 2.737.994 3.432-1.822 5.336-6.05 3.268-9.915-2.146-4.039-6.974-5.107-10.747-3.091"/>
    </g>
</svg>
