<svg xmlns="http://www.w3.org/2000/svg" width="16" height="22" viewBox="0 0 16 22">
    <path fill="#FFF" fill-rule="evenodd" d="M3.548 2.802c-.241-.548-.205-1.052.1-1.383.199-.218.493-.332.824-.332.17 0 .352.03.535.093 1 .342 1.587 1.617 2.149 2.863-1.267-.04-3.194-.303-3.608-1.241m7.445-1.622a1.66 1.66 0 0 1 .535-.093c.331 0 .625.114.825.332.304.331.34.835.099 1.383-.414.939-2.34 1.2-3.608 1.24.562-1.245 1.148-2.52 2.15-2.862m3.898 3.398h-2.966c.672-.284 1.242-.707 1.52-1.338.417-.946.308-1.902-.292-2.556-.6-.653-1.562-.857-2.512-.532C9.31.607 8.596 1.972 8 3.274 7.404 1.972 6.69.607 5.358.152c-.95-.325-1.913-.12-2.512.532-.6.654-.71 1.61-.292 2.556.278.63.848 1.054 1.52 1.338H1.109C.496 4.578 0 5.074 0 5.686v3.838c0 .612.496 1.108 1.108 1.108h.281v8.962c0 .933.756 1.69 1.689 1.69h9.844c.933 0 1.689-.757 1.689-1.69v-8.962h.28c.613 0 1.109-.496 1.109-1.108V5.686c0-.612-.496-1.108-1.108-1.108"/>
</svg>
