<svg xmlns="http://www.w3.org/2000/svg" width="30" height="30" viewBox="0 0 30 30">
    <path fill="#00C300" fill-rule="nonzero" d="M4.071 0H25.93A4.07 4.07 0 0 1 30 4.071V25.93A4.07 4.07 0 0 1 25.929 30H4.07A4.07 4.07 0 0 1 0 25.929V4.07A4.07 4.07 0 0 1 4.071 0zm21.8 14.462c0-.214.107-.536.107-.643v-.857c-.322-4.714-5.143-8.357-11.036-8.357-6 0-10.928 3.857-10.928 8.679 0 4.392 4.178 8.142 9.535 8.678.322 0 .536.322.536.643l-.214 2.036c0 .428.428.857.857.643 4.5-2.143 7.286-4.5 8.893-6.429.321-.321 1.285-1.714 1.5-2.036.321-.75.643-1.5.75-2.357zm-16.929.643v-3.643c0-.321-.214-.536-.536-.536-.321 0-.535.215-.535.536v4.286c0 .321.214.536.535.536h2.25c.322 0 .536-.215.536-.536 0-.322-.214-.536-.536-.536H8.942v-.107zm3.429 1.179h-.215a.46.46 0 0 1-.428-.429v-4.5a.46.46 0 0 1 .428-.429h.215a.46.46 0 0 1 .428.429v4.5c.107.214-.107.429-.428.429zm4.607-4.822v2.572s-2.25-2.893-2.25-3a.818.818 0 0 0-.536-.215c-.214.107-.536.322-.536.643v4.179c0 .321.215.535.536.535.322 0 .536-.214.536-.535v-2.572s2.25 3 2.357 3c.107.107.214.107.429.107.321 0 .535-.321.535-.535v-4.179c0-.321-.214-.536-.535-.536-.322-.107-.536.215-.536.536zm5.357 0c0-.321-.214-.536-.536-.536h-2.25c-.321 0-.535.215-.535.536v4.286c0 .321.214.536.535.536h2.25c.322 0 .536-.215.536-.536 0-.322-.214-.536-.536-.536h-1.714v-1.071h1.714c.322 0 .536-.215.536-.536 0-.321-.214-.536-.536-.536h-1.714v-1.071h1.714c.215 0 .536-.214.536-.536z"/>
</svg>
