<svg xmlns="http://www.w3.org/2000/svg" xmlns:xlink="http://www.w3.org/1999/xlink" width="300" height="300" viewBox="0 0 300 300">
    <defs>
        <filter id="a" width="117.9%" height="119.9%" x="-7.6%" y="-8.4%" filterUnits="objectBoundingBox">
            <feOffset dx="5" dy="5" in="SourceAlpha" result="shadowOffsetOuter1"/>
            <feGaussianBlur in="shadowOffsetOuter1" result="shadowBlurOuter1" stdDeviation="10"/>
            <feColorMatrix in="shadowBlurOuter1" result="shadowMatrixOuter1" values="0 0 0 0 0 0 0 0 0 0 0 0 0 0 0 0 0 0 0.5 0"/>
            <feMerge>
                <feMergeNode in="shadowMatrixOuter1"/>
                <feMergeNode in="SourceGraphic"/>
            </feMerge>
        </filter>
        <path id="b" d="M.59 44.112C18.942 24.813 35.77 6.838 65.82 13.366c24.01 5.215 18.251 15.018 40.423 11.838 28.693-4.116 39.94-21.367 62.602-24.498 17.775-2.455 39.583 18.423 57.76 22.998 8.206 2.065 24.257-11.658 25.468-12.001 10.54-2.985 21.75-2.96 32.7-3.288 10.293-.308 11.978 15.014 21.196 18.906 9.613 4.06 20.595 1.85 29.74-2.465 7.953-3.752 17.593-22.472 21.854-14.777 7.318 13.22-4.62 29.944-5.094 45.048-.114 3.629 19.473 261.439 5.094 265.219-21.853 5.745-157.474 4.733-178.163 5.745-20.69 1.012-148.294-23.224-168.925-31.074C7.301 293.81.754 191.685.59 151.404.44 114.503.826 92.581 5.604 53.32L.589 44.112z"/>
    </defs>
    <g fill="none" fill-rule="evenodd" filter="url(#a)" transform="translate(-32 -6)">
        <path fill="#FEFEFE" d="M261.996 235.158s.002.222.863-.515c27.148-27.37 42.954-66.33 31.659-106.245C274.588 57.91 234.289 26.88 163.793 29.59 93.29 32.308 55.01 107.101 55.227 167c.213 59.877 70.097 111.326 132.4 105.36 18.956-1.81 38.112-9.35 55.048-20.896l19.32-16.306z"/>
        <path fill="#FEFEFE" d="M172.112 37.86c-2.616 0-5.28.051-7.996.156-37.364 1.44-60.973 24.524-74.199 43.635-16.552 23.92-26.37 55.814-26.264 85.317.081 22.845 11.544 45.772 32.275 64.557 25.332 22.955 60.165 35.39 90.897 32.442 17.032-1.627 34.571-8.274 50.754-19.23l20.728-17.496c26.845-27.927 37.348-63.878 28.103-96.545-9.569-33.842-23.76-57.534-43.385-72.434-18.045-13.699-41.303-20.403-70.913-20.403m5.785 243.39c-32.488 0-67.374-13.75-93.28-37.226-24.287-22.007-37.717-49.35-37.815-76.993-.12-32.823 10.82-68.33 29.26-94.977 21.786-31.483 52.827-49.554 87.406-50.886 73.893-2.836 118.112 30.503 139.157 104.936 11.087 39.175-1.542 81.973-33.786 114.48l-.504.468c-.592.507-1.179.925-1.75 1.263L247.42 258.43c-18.62 12.695-39.019 20.414-58.992 22.323-3.471.332-6.987.496-10.531.496"/>
        <mask id="c" fill="#fff">
            <use xlink:href="#b"/>
        </mask>
        <use fill="#3E5214" fill-opacity="0" xlink:href="#b"/>
        <g fill="none" fill-opacity="0" mask="url(#c)">
            <path d="M260.259 97.014c-.819-1.545-2.862-1.757-3.745-1.291l2.729 5.119c.88-.471 1.827-2.281 1.016-3.828"/>
            <path d="M286.653 156.85a2.668 2.668 0 0 1-2.948-2.361c-.146-1.45.874-2.78 2.365-2.943 1.486-.17 2.779.9 2.948 2.36a2.672 2.672 0 0 1-2.365 2.944zm-3.5 13.284c-.116 3.101-1.801 5.494-5.466 5.362l-8.285-.312c-1.288-.042-2.281-1.006-2.24-2.33.064-1.312 1.118-2.191 2.415-2.132l7.07.257c1.548.06 2.725-.814 2.791-2.36.052-1.552-1.056-2.51-2.607-2.562l-7.074-.276c-1.286-.047-2.279-1.006-2.243-2.324.058-1.312 1.116-2.19 2.405-2.133l10.943.397c1.294.058 2.281 1.006 2.241 2.335a2.375 2.375 0 0 1-1.528 2.17c1.093.762 1.662 1.995 1.578 3.908zM280.36 188.1c-.519 1.616-1.325 2.557-2.792 3.146.543.503 1.046 1.393.71 2.43-.397 1.249-1.658 1.82-2.871 1.424l-11.063-3.526c-5.446-1.742-6.349-5.934-5.027-10.117.715-2.219 2.883-6.1 5.195-5.357.957.306 1.564 1.518 1.3 2.365-.397 1.229-1.9 1.62-2.691 4.12-.851 2.636.254 3.986 2.634 4.737l.02-.051c-1.015-1.34-.86-2.977-.412-4.39 1.31-4.14 5.545-5.05 9.398-3.813 4.286 1.363 6.797 5.317 5.6 9.032zm-25.729-57.7c-.385-1.267.34-2.431 1.58-2.802l16.415-4.897c1.251-.365 2.5.218 2.866 1.493.312 1.032-.202 1.907-.771 2.409 1.47.603 2.264 1.567 2.746 3.193 1.107 3.743-1.479 7.65-5.78 8.932-4.314 1.28-8.601-.577-9.718-4.327-.543-1.836-.244-2.938.16-3.902l-4.645 1.383c-1.24.376-2.486-.218-2.853-1.483zm-5.247-27.452c-2.269-4.252-.538-8.598 3.46-10.716 3.792-2.027 8.646-.952 10.802 3.109 2.077 3.885.163 8.137-3.285 9.969-1.399.745-2.07.259-2.75-1l-3.807-7.143c-.839.45-1.864 1.805-.505 4.342 1.031 1.947 2.913 2.476 3.396 3.393.478.885.185 2-.831 2.541-1.912 1.032-4.896-1.508-6.48-4.495zm-1.833-9.747c-1.86 1.234-4.536-1.217-5.525-2.7-2.501-3.77-1.197-8.264 2.543-10.762 3.743-2.5 8.384-1.981 10.913 1.788 1.108 1.673 2.456 4.739.483 6.053-1.007.666-2.191.497-2.76-.366-.631-.953-.198-1.631-1.174-3.086-1.246-1.885-3.274-1.812-4.976-.669-1.712 1.145-2.547 3.019-1.444 4.654 1.05 1.6 2.197 1.912 2.567 2.463.562.858.155 2.091-.627 2.625zm-9.188-12.478c-1.033.789-2.4.705-3.214-.338-.802-1.045-.56-2.405.45-3.193l8.647-6.734c1.005-.794 2.392-.705 3.204.327.809 1.043.552 2.404-.464 3.198l-8.623 6.74zm-8.014 56.416c-5.537.571-11.652-1.07-16.664-6.601-5.008-5.533-20.007-16.017-22.234-17.679-2.224-1.657-3.081-6.348.522-9.984 1.656-1.68 2.765-1.684 7.187-2.251 4.448-.567 5.567 2.202 8.896 4.967 3.34 2.762 8.882 3.297 13.887 6.606 5 3.314 9.454 5.517 13.897 8.83 4.455 3.31.057 15.534-5.491 16.112zm-45.335 55.563c-4.476.942-8.76 1.493-10.377 3.616-2.677 3.25-2.23 6.993-1.772 10.228.316 2.176 4.815 3.224 8.14 5.596 1.645 1.175 3.84 3.288 4.174 4.744.106.815-.689 2.256-.884 2.398-1.63 1.345-5.659.355-7.345.805-1.895.523-2.924 1.414-3.535 2.477-1.341 2.325-1.697 27.975-3.026 32.608-1.324 4.637-8.202 9.662-8.976 5.813-.673-3.35-.995-29.357-1.004-32.125-.012-2.79-5.165-.667-9.206-1.59-1.075-.232-1.877-.11-2.467-1.21-.35-.685-.658-1.568.047-2.759 1.574-2.674 6.254-7.332 8.066-9.445.896-1.038 1.976-1.843 2.509-3.155 1.589-3.93 1.737-8.508 1.382-10.605-.444-2.785-9.354 1.89-10.652-5.135-.51-2.769 3.123-5.58 6.707-6.518 1.724-.45 3.078-1.191 3.744-2.965.368-.98.509-2.059.72-3.102.205-1.113.487-2.192 1.17-3.092 1.186-1.588 3.09-2.418 4.953-2.848 8.063-1.9 3.613 7.401 7.636 6.458 4.031-.947 13.352-3.478 14.052.254.59 3.187-.083 8.705-4.056 9.552zm-47.4-13.712c-1.373-.683-3.11-.842-4.683-.826-7.136.08-13.857 2.049-20.47 4.595-6.306 2.43-12.608 5.078-19.554 4.866-6.44-.197-12.55-1.68-17.569-6.004-6.176-5.315-6.258-10.896-.649-16.73 4.815-5.04 10.796-6.475 17.323-5.59 8.833 1.201 19.015 3.43 23.695 3.827 4.676.402 10.171-.031 16.14-.17 5.973-.147 9.046.678 14.108 1.403 3.458.493 5.152 2.637 5.261 5.586.283 7.386-7.13 12.246-13.602 9.043zm-33.387-47.415c2.471-2.797 4.491-3.485 7.072-4.891 2.587-1.405 7.902-3.973 10.67-7.319 2.76-3.34 6.948-7.083 9.713-10.418 2.763-3.331 4.789-4.437 9.248-4.94 3.515-.398 4.186 5.692 2.543 10.143-1.65 4.437-11.043 15.01-20.458 18.934-9.407 3.918-21.966 2.086-18.788-1.51zm83.82-12.161c-.794 2.599-3.653 7.92-6.77 12.324-3.193 4.527-4.021 14.003-4.985 17.096-.995 3.134-5.297 6.977-10.07 6.31-4.734-.652-8.813-1.948-12.852-3.223-4.014-1.282-5.376-3.764-8.673-6.84-3.227-2.993-1.972-7.678-.728-11.093 1.196-3.34 7.133-16.57 10.254-21.468 2.158-3.388 6.23-2.44 9.726-1.974 3.524.464 6.529 1.43 9.555 2.393 3.042.974 6.364-.503 9.881-.515 3.512-.01 5.434 4.444 4.662 6.99zm-48.395-70.732c6.65-.027 13.862-.053 19.403-.069 5.547-.022 1.918-4.448 10.793-4.48 6.246-.024 6.956 5.523 9.731 6.069 2.774.544 34.93-.128 36.617 4.31 1.67 4.43-2.173 9.995-6.075 9.45-3.892-.536-23.29-.478-28.84-1.002-5.537-.54-4.973 2.79-3.3 4.453 1.667 1.657 14.413.497 20.521.477 6.1-.022 8.325 3.859 8.336 6.633.007 2.769-2.196 5.004-6.076 5.015-3.88.014-18.856.618-23.294.084-.962-.117-1.89-.117-1.823 1.01.05.72-.606 3.3 6.245 2.155 2.198-.365 4.453.133 6.684.122 6.096-.02 11.096 1.626 13.308 3.277 2.222 1.662-.523 6.665-2.745 7.783-2.2 1.118-10.523.588-18.853.62-8.317.027-31.59 2.329-39.362.699-7.767-1.63-7.222-4.41-5.577-8.297 1.655-3.897 10.535-1.71 17.743-2.292 7.2-.577 8.854-3.918 6.637-5.013-2.222-1.107-16.64-.499-21.08-.482-4.431.015-5.55-1.091-6.667-4.41-1.126-3.335 2.2-5.565 4.408-6.132 2.218-.555 22.18-2.292 24.954-2.303 2.767-.01 2.212-1.673.54-3.329-1.673-1.657-8.872-.53-13.866-.508-1.909.005-3.801.062-5.713.005-1.749-.058-3.477-.053-5.23.073-1.319.075-2.67.224-3.921-.275a.231.231 0 0 0-.071-.037c-2.59-1.074-4.152-4.24-4.502-6.914-.567-4.431 4.415-6.67 11.075-6.692zm109.295 17.55a2.673 2.673 0 0 1 3.293 4.21 2.67 2.67 0 0 1-3.747-.461 2.674 2.674 0 0 1 .454-3.748zm18.288 39.156c4.131-1.657 7.378.78 8.823 4.369 1.386 3.458.962 5.86-.69 6.517-1.155.477-2.333.048-2.785-1.096-.558-1.387-.028-2.122-.775-3.966-.463-1.164-1.392-1.714-2.328-1.345-1.081.446-.78 1.563-.563 4.941.156 2.647-.12 5.393-3.722 6.839-4.347 1.764-7.615-.666-9.233-4.684-1.02-2.526-1.578-6.757.55-7.609 1.157-.47 2.568-.202 3.099 1.096.424 1.06-.109 2.885.783 5.099.665 1.673 1.784 1.942 2.7 1.567 1.438-.588 1.066-2.35.885-5.12-.197-2.525-.155-5.225 3.256-6.608zm13.173 37.104a2.417 2.417 0 0 1-.973 2.477c1.02.544 2.05 1.45 2.294 2.7a2.31 2.31 0 0 1-1.815 2.707c-1.53.3-2.122-.78-2.922-2.294-.943-1.8-1.575-2.32-3.81-1.869l-5.36 1.08c-1.261.233-2.451-.456-2.705-1.747-.254-1.297.574-2.393 1.848-2.652l10.725-2.144c1.272-.25 2.462.443 2.718 1.742zm1.987 12.144c.157 1.312-.767 2.34-2.055 2.483l-10.885 1.196c-1.293.139-2.413-.661-2.553-1.97-.153-1.318.77-2.344 2.062-2.481l10.89-1.193c1.275-.153 2.404.652 2.54 1.965zM163.793 29.592C93.29 32.309 55.011 107.099 55.227 166.999c.214 59.879 70.097 111.328 132.4 105.361 18.956-1.811 38.113-9.349 55.049-20.897-9.65-5.918-22.088-15.882-23.398-16.866-1.863-1.382-4.854 2.758-8.567 4.621-3.7 1.868-11.524 5.215-17.542 5.236-6.024.021-12.353-8.783-11.901-11.563.456-2.79 7.414-.963 12.505-1.445 5.087-.482 10.645-3.754 10.638-5.602-.007-1.852-5.57-4.155-6.05-7.39-.47-3.25 1.371-6.972 5.07-6.988 3.704-.01 6.168 1.434 13.915 3.446 3.261.821 8.877-2.456 10.634-9.56 1.335-5.444-1.155-7.863-3.88-8.811-2.792-.99-9.265 1.414-12.5 2.356-3.242.932-9.973 1.747-10.814-2.34-.447-2.25-.25-4.23.434-5.172 1.47-2.029 6.541-2.336 9.543-3.125 2.79-.74 3.456-1.418 2.758-7.893-.257-2.344-5.494-2.213-9.357-1.334-8.943 2.038-10.497-6.755-9.57-8.926.479-1.149 1.845-1.652 2.921-2.017 3.033-1.048 6.413-1.27 9.58-1.63 1.386-.16 2.765-.34 4.139-.642 1.152-.249 1.586-.725 1.776-1.423.133-.514.126-1.155.148-1.922.045-1.33.194-3.192 1.245-4.098.7-.603 4.27-.996 5.346-1.091 4.617-.412 3.7 5.146 5.106 6.528.6.603 2.015.482 2.758.502 3.082.106 5.586-.91 8.672-.878 1.235.02 2.46.465 3.564 1.085 1.439.831 1.912 2.521 2.314 4.007.374 1.383.118 3.814-1.307 4.602-1.27.709-3.873.879-6.996 1.323-3.638.53-7.77 1.593-8.527 2.367-1.418 1.424-.387 4.955-.375 7.952.582 2.219 1.88 1.499 8.49 2.16 6.312.636 8.687 4.59 8.727 15.719.04 11.123-7.662 15.67-7.187 19.366.48 3.721 20.9 11.997 26.446 12.432.45.042.923.106 1.424.195 27.15-27.372 42.956-66.331 31.659-106.246-19.929-70.487-60.228-101.516-130.724-98.806z"/>
            <path d="M270.417 134.429c1.975-.577 3.32-2.124 2.739-4.018-.558-1.9-2.517-2.442-4.493-1.859-1.982.593-3.312 2.124-2.748 4.02.573 1.899 2.516 2.455 4.502 1.857M160.981 136.118c-3.837-.864-5.774-2.129-6.642-.44-.805 1.6-.348 3.039 2.535 3.478 2.887.44 6.531 2.78 8.87 1.896 2.333-.884-.917-4.07-4.763-4.934M273.403 183.332c-2.074-.667-3.992-.132-4.587 1.747-.595 1.89.65 3.431 2.73 4.098 1.956.62 3.928.117 4.535-1.78.604-1.879-.708-3.44-2.678-4.065M164.595 122.173c-1.569.005-4.186.677-3.012 2.78.481.852 2.022 1.01 2.873 1.19 3.735.805 6.51.916 6.345-.698-.143-1.59-3.942-3.277-6.206-3.272"/>
        </g>
    </g>
</svg>
