<svg id="圖層_1" xmlns="http://www.w3.org/2000/svg" viewBox="0 0 125 99"><style>.st0{fill:#c7b299}</style><path class="st0" d="M27.5 32.2l-2.1-13.8h-3.6l-2.1 13.8-1.5-13.8h-3.7L18 38h3.5l2.1-13.9L25.8 38h3.4l3.5-19.6h-3.6zm6.6-13.8V38h3.3v-8.2h2.8V38h3.3V18.4h-3.3v7.9h-2.8v-7.9zm12 0h3.3V38h-3.3zm10.1 16.3c-.5 0-.8-.2-1-.5-.3-.4-.4-1-.4-1.8h-3.3c0 2 .3 3.4 1.1 4.3.7.9 2 1.4 3.6 1.4s2.9-.6 3.6-1.5c.9-1 1.1-2.4 1.1-4.3 0-3.5-.6-4.7-2.7-5.7l-2.1-1c-1-.5-1.1-.8-1.1-2.1 0-.7.1-1.1.3-1.4.2-.3.5-.5 1-.5s.8.2 1 .5c.3.4.3 1.1.3 1.8h3.3c0-2-.4-3.5-1.3-4.5-.7-.8-1.8-1.2-3.3-1.2-1.3 0-2.3.4-3.1 1.2-1 1-1.5 2.5-1.5 4.3 0 3.1.7 4.1 2.4 4.9l2.1 1c1.2.6 1.5.9 1.5 2.8 0 .8-.1 1.3-.3 1.7-.4.4-.7.6-1.2.6zm16.6-16.3h-3.4l-3.1 8.4v-8.4H63V38h3.3v-4.5l1.1-2.7 2.3 7.2h3.6l-3.9-11.5zm6.2 7.1l-1.5-7.1h-3.6l3.4 12.2V38h3.3v-7.4L84 18.4h-3.6zM21.7 61.9l3.7-19.6h-3.6L20 56.1l-1.8-13.8h-3.7l3.7 19.6zM29 42.3l-4.3 19.6h3.5l.5-3.1h3.8l.5 3.1h3.5l-4.3-19.6H29zm.4 13l1.3-7.3 1.3 7.3h-2.6zm14.1 1.5c0 1.3-.6 1.8-1.4 1.8-.7 0-1.4-.5-1.4-1.8V42.3h-3.3v14.3c0 1.6.4 2.9 1.2 3.9.9 1.1 2.1 1.6 3.5 1.6s2.6-.6 3.5-1.6c.8-1 1.2-2.3 1.2-3.9V42.3h-3.3v14.5zm9.1-14.5h-3.3v19.6H57v-3.5h-4.4zm4.2 3.5h2.9v16.1H63V45.8h2.8v-3.5h-9zm-41.2 36h3.5v4.1h-3.5zm5.2-11.9h2.8V86H27V69.9h2.8v-3.5h-9zm23 10.3l-2.1-13.8h-3.6L36 80.2l-1.5-13.8h-3.7L34.3 86h3.5l2.1-13.9L42.1 86h3.4L49 66.4h-3.6z"/><path class="st0" d="M100.6 66.2c.2.6 1.5.8 2.9.3s2.3-1.4 2.1-2.1l-.6-1.7-2.1-6.1h.2l1.2-3.8c-1.3-.3-2.5-1.2-3.1-2.5h-1.7c-1.5 0-2.6-1.2-2.6-2.7 0-1.5 1.2-2.7 2.6-2.7h1.2c-.7.1-2 1.4-2 2.7 0 1.4 1.3 2.7 2 2.7h.5c-.4-.8-.7-1.7-.7-2.7 0-1 .3-2 .7-2.8.7-1.1 1.8-2 3.1-2.3l-1.2-3.9h-.2l1.9-5.5.2-.7.6-1.7c.2-.7-.7-1.6-2.1-2.1-1.4-.5-2.7-.3-2.9.3l-2.4 7-.9 2.7h-4.9V9.3H14.5v5.3h72.2V86h5.6V56.6h4.9l2.7 7.6.1.3.6 1.7z"/><path class="st0" d="M114.4 81.3l-3.8-11c-.1-.3-.3-.5-.6-.7l-2.7-3.1c.1 2.5-.5 4.4-1.9 4.9-1.5.5-3.3-.8-4.9-3.1l-.1 4.9v.7c0 .1 0 .1.1.2l3.7 10.8c.5 1.3 3.1 1.6 5.8.6 3-1.1 4.9-2.9 4.4-4.2zm-13.9-59.2l.1 4.9c1.5-2.3 3.4-3.6 4.9-3.1 1.4.5 2 2.4 1.9 4.9l2.7-3.1c.3-.2.5-.4.6-.7l3.8-11c.5-1.3-1.4-3.1-4.2-4.1-2.8-1-5.4-.7-5.8.6l-3.7 10.8c0 .1-.1.1-.1.2v.2c-.2.1-.2.3-.2.4z"/><ellipse class="st0" cx="109.8" cy="47.7" rx="4.7" ry="5.3"/></svg>