<svg id="圖層_1" xmlns="http://www.w3.org/2000/svg" viewBox="0 0 177 142"><style>.st0{fill:#fff}</style><path class="st0" d="M28.7 45.9l-3.4-22.5h-5.9L16 45.9l-2.6-22.5H7.5l5.7 31.9h5.6l3.5-22.6 3.6 22.6h5.6l5.7-31.9h-6zm10.7-22.5v31.9h5.5V41.9h4.5v13.4h5.4V23.4h-5.4v12.8h-4.5V23.4zm19.6 0h5.4v31.9H59zm16.4 26.5c-.8 0-1.4-.4-1.7-.8-.5-.7-.6-1.6-.6-2.9h-5.4c0 3.3.5 5.5 1.8 7.1 1.2 1.4 3.2 2.3 5.9 2.3 2.6 0 4.7-1 5.9-2.4 1.4-1.6 1.8-3.9 1.8-7.1 0-5.8-1-7.6-4.4-9.2l-3.4-1.6c-1.6-.8-1.9-1.3-1.9-3.4 0-1.1.1-1.7.5-2.3.3-.5.8-.9 1.6-.9s1.3.3 1.6.8c.5.7.5 1.7.5 2.9H83c0-3.2-.6-5.8-2.1-7.4-1.2-1.3-2.9-2-5.3-2-2.1 0-3.7.7-5 2-1.6 1.7-2.4 4.1-2.4 7.1 0 5 1.1 6.7 3.9 8l3.4 1.7c1.9.9 2.4 1.5 2.4 4.5 0 1.3-.2 2.2-.5 2.7-.6.7-1.1.9-2 .9zm27.1-26.5h-5.4l-5.2 13.7V23.4h-5.4v31.9h5.4V48l1.8-4.4 3.9 11.7h5.8l-6.3-18.6zm10.1 11.5l-2.3-11.5h-6l5.6 19.9v12h5.4v-12l5.5-19.9h-5.9zM19.2 94.3l6.1-31.9h-5.9l-3 22.5-3-22.5H7.5l6.1 31.9zm12-31.9l-7 31.9h5.7l.9-5H37l.9 5h5.7l-7-31.9h-5.4zm.5 21.2l2.1-11.8 2.1 11.8h-4.2zM54.8 86c0 2.1-1 2.9-2.3 2.9-1.2 0-2.3-.8-2.3-2.9V62.4h-5.4v23.4c0 2.6.7 4.7 2 6.3 1.5 1.7 3.4 2.6 5.7 2.6 2.3 0 4.2-.9 5.7-2.6 1.3-1.6 2-3.7 2-6.3V62.4h-5.4V86zm14.8-23.6h-5.4v31.9h12.6v-5.7h-7.2zm6.9 5.7h4.6v26.2h5.4V68.1h4.6v-5.7H76.5zM9.3 126.8H15v6.7H9.3zm8.5-19.4h4.6v26.2h5.4v-26.2h4.6v-5.8H17.8zm37.5 16.8l-3.4-22.6h-6l-3.3 22.6-2.6-22.6h-5.9l5.7 32h5.6l3.5-22.6 3.5 22.6h5.7l5.7-32h-6z"/><path class="st0" d="M147.9 101.4c.4 1.1 2.5 1.3 4.8.5s3.8-2.3 3.4-3.4l-1-2.8-3.5-10h.3l2-6.1c-2.2-.6-4-2-5.1-4H146c-2.4 0-4.3-2-4.3-4.5s1.9-4.5 4.3-4.5h1.9c-1.2.2-3.2 2.3-3.2 4.5s2.1 4.5 3.3 4.5h.8c-.7-1.3-1.1-2.8-1.1-4.4 0-1.7.4-3.2 1.2-4.6 1.1-1.9 2.9-3.2 5-3.8l-2-6.3h-.3l3.1-9 .4-1.1 1-2.8c.4-1.1-1.2-2.6-3.4-3.4-2.3-.8-4.4-.6-4.8.5l-4 11.4-1.5 4.4h-7.9V8.6H7.5v8.7h117.8v116.3h9.1V85.7h8l4.4 12.4.2.5.9 2.8z"/><path class="st0" d="M170.4 125.9l-6.2-17.9c-.2-.5-.5-.9-1-1.2l-4.3-5.1c.2 4-.9 7.2-3.1 8-2.4.8-5.5-1.2-7.9-5l-.1 7.9c0 .3-.1.5 0 .8 0 .1 0 .2.1.3 0 .1.1.2.1.3l6.1 17.6c.7 2.1 5 2.6 9.5 1 4.5-1.5 7.5-4.5 6.8-6.7zm-22.7-96.4l.1 7.9c2.5-3.7 5.5-5.8 7.9-5 2.2.8 3.3 3.9 3.1 8l4.3-5.1c.5-.3.8-.7 1-1.2l6.2-17.9c.7-2.1-2.3-5.1-6.9-6.7-4.5-1.6-8.8-1.1-9.5 1l-6.1 17.6c0 .1-.1.2-.1.3 0 .1-.1.2-.1.3.1.3.1.5.1.8z"/><ellipse class="st0" cx="162.9" cy="71.2" rx="7.6" ry="8.6"/></svg>