<svg xmlns="http://www.w3.org/2000/svg" width="250" height="245" viewBox="0 0 250 245">
    <g fill="#F29700" fill-rule="evenodd">
        <path d="M217.796 187.756c-2.878-4.241.47-7.478.47-7.478 4.36-3.013 7.797 3.749 7.726 6.16-.075 2.403-5.317 5.563-8.196 1.318m3.725-51.136c1.075-5.013 5.724-4.833 5.724-4.833 5.19 1.075 2.68 8.23.895 9.841-1.79 1.616-7.694 0-6.62-5.008m-17.133 40.475c-6.766 0-11.022-18.556-3.006-21.063 3.025-.947 7.77 2.005 8.768 8.274.365 2.284 1.004 12.789-5.762 12.789m-8.42 21.235c-.829 3.454-3.94 9.671-7.457 6.354-3.523-3.317-2.074-19.494 3.934-18.456 3.902.673 4.352 8.653 3.523 12.102m-18.108 26.726c-1.79 1.61-7.69 0-6.62-5.013 1.08-5.014 5.725-4.834 5.725-4.834 5.19 1.071 2.684 8.236.895 9.847m-8.2-51.47c-4.508-.289-12.401-15.708-2.255-16.087 3.002-.109 8.267 3.388 8.267 7.146 0 3.762-1.505 9.235-6.013 8.941m-17.43 29.721c-2.506 2.256-10.772 0-9.272-7.022 1.506-7.022 8.021-6.766 8.021-6.766 7.263 1.502 3.755 11.528 1.25 13.788m-46.604 21.3c-4.001-7.718 1.108-11.173 1.108-11.173 6.595-2.653 11.287 9.14 11.05 12.77-.246 3.625-8.153 6.118-12.158-1.596M154.527 42.29c-3.39 5.084-6.676 8.69-8.906 8.69-7.14 0-6.425-2.857-6.425-2.857.076-2.123.748-5.113 1.742-8.51a567.526 567.526 0 0 0-9.8-1.687C81.265 29.86 14.983 61.282 1.493 132.87c-11.458 60.794 44.962 108.718 100.832 111.116 55.875 2.393 145.25-5.194 146.996-89.85 1.544-74.976-36.813-99.303-94.795-111.846"/>
        <path d="M165.79 10.147c.282 2.438-6.59 19.67-14.652 30.99-3.57 5.024-5.207 5.628-5.132 5.642-1.665 0-2.627-.18-3.146-.335.802-8.07 9.288-28.033 12.552-35.708a256.928 256.928 0 0 0 1.566-3.726c.056-.01.113-.014.18-.019 2.942-.094 8.009 2.01 8.631 3.156M156.78.623c-3.801.227-5.084 2.274-5.509 3.462-.212.585-.835 2.043-1.73 4.156-4.138 9.726-12.741 29.967-13.095 38.5-.08.576-.146 2.08 1.01 3.57 1.5 1.916 4.301 2.85 8.56 2.85 2.5 0 6.265-1.444 13.236-12.731 3.156-5.104 15.279-26.977 12.378-32.779-2.335-4.67-10.529-7.405-14.85-7.028"/>
    </g>
</svg>
