<svg xmlns="http://www.w3.org/2000/svg" xmlns:xlink="http://www.w3.org/1999/xlink" width="100" height="100" viewBox="0 0 100 100">
    <defs>
        <circle id="a" cx="50" cy="50" r="50"/>
    </defs>
    <g fill="none" fill-rule="evenodd">
        <mask id="b" fill="#fff">
            <use xlink:href="#a"/>
        </mask>
        <use fill="#D8D8D8" fill-opacity="0" xlink:href="#a"/>
        <path fill="#F0D6A8" d="M42.895 78.909a38.68 38.68 0 0 0-1.38 2.836c-.864 1.984-1.614 4.1-2.127 6.255-.122-.353-.254-.71-.388-1.062.37-1.399.848-2.765 1.434-4.088a30.314 30.314 0 0 0-2.15 5.315A62.832 62.832 0 0 0 36 83.234c.251-1.46.584-2.909 1.025-4.331 1.427-4.606 3.927-8.61 7.177-12.15C49.749 60.7 57.084 55.312 59.084 47c1.626 7.592 1.09 15.574-1.625 22.872-1.452 3.91-3.525 7.513-6.07 10.814-2.659 3.45-5.68 6.603-8.294 10.09-1.004 1.348-1.965 2.753-2.802 4.224a29.66 29.66 0 0 0-.692-3.036c.5-2.745 1.191-5.424 2.288-8.065 1.44-3.47 3.413-6.555 5.626-9.542 2.346-2.695 4.569-5.472 5.537-8.998.042-.156-.227-.234-.274-.077-1.785 5.55-6.511 9.099-9.883 13.627zm-48.392-9.653c1.315.856 2.615 1.736 3.908 2.643 3.14 2.197 6.343 4.496 10.196 5.01.2.026.308-.18.265-.332-.02-.078-.298-.351-.364-.43a3.239 3.239 0 0 1-.15-.175c-1.23-1.554-1.711-4.037-2.052-5.95-.297-1.676-.396-3.369-.387-5.07.012-1.324.066-2.643.072-3.952.192 2.128.282 4.273.509 6.312.43 3.845 1.551 9.836 6.219 10.166.687.046 1.385-.03 2.068.054.251.033.825.087.955.225.769.815-.39 1.095-.773 1.166-1.35.255-3.086-.185-4.422-.45a28.198 28.198 0 0 1-7.476-2.627c-2.302.651-4.404 1.394-6.859 1.08-4.551-.582-8.261-3.449-11.791-6.1-3.305-2.48-6.7-4.628-10.672-5.913A30.927 30.927 0 0 0-37 63.446c4.055-2.08 8.648-3.499 13.054-4.513 4.41-1.014 9.038-1.36 13.468-.23C-5.98 59.849-2.07 62.56.126 66.646c1.247 2.326 2.126 5.192 3.874 7.21C1.953 72.789.041 71.42-1.871 70.16c-2.873-1.894-5.805-3.726-8.895-5.256-4.353-2.447-9.478-3.459-14.455-2.716-.259.04-.281.265-.016.23 5.895-.753 11.513.912 16.345 4.288a75.537 75.537 0 0 1 3.395 2.55zm114.863-17.651c-4.048 1.134-8.309-.321-11.818-2.458-4.16-2.534-7.98-5.676-11.891-8.556-3.818-2.807-7.635-5.366-12.192-6.88-3.38-1.122-6.896-1.976-10.465-2.146 4.057-1.082 8.121-2.132 12.272-2.808 8.39-1.363 17.596-1.202 25.12 3.149 6.19 3.578 10.933 10.132 10.59 17.283a29.972 29.972 0 0 0-2.437-3.196c-3.592-4.13-8.1-7.519-13.034-9.967-5.016-2.492-10.424-3.695-16.014-4.083-.164-.008-.19.23-.028.249 5.667.703 11.055 2.009 16.136 4.579 4.586 2.808 8.733 6.587 11.842 10.887-1.08-1.774-2.363-3.423-3.71-4.961A37.137 37.137 0 0 0 100 39a38.233 38.233 0 0 1 7.223 7.086c1.382 1.781 2.592 3.72 3.49 5.822.486 1.144.931 2.363 1.162 3.594.026.145.137.672.124.99-.026.929-.826.41-.984-.177-.118-.447-.413-1.207-.564-1.637-.35-1.029-.696-2.061-1.085-3.073zM47.207 25.589c3.008 4.924 5.542 10.448 11.251 12.71.171.067.24-.207.073-.276-2.389-.986-4.212-2.612-5.748-4.526-1.9-2.831-2.91-6.132-4.506-9.13a24.66 24.66 0 0 0-2.937-4.328c-.008-.012-.024-.026-.033-.039 1.046.22 2.117.402 3.106.76 3.527 1.264 5.904 4.483 7.545 7.678 1.577 3.075 2.632 6.415 4.414 9.387C61.74 40.108 63.676 41.826 66 43c-2.92-.15-5.784-1.014-8.558-1.913-3.517-1.14-7.016-2.708-9.498-5.52-2.379-2.687-2.927-5.964-2.884-9.433.011-.979.095-1.981.035-2.966-2.066-2.857-5.12-5.892-8.764-4.477-.644.25-1.24.611-1.897.83-.244.078-.782.272-.958.209-1.038-.372-.102-1.103.215-1.329 1.117-.792 2.869-1.147 4.19-1.485a29.412 29.412 0 0 1 7.92-.91c4.192.09 8.158 1.329 12.199 2.227a135.088 135.088 0 0 1-6.399-.806c-3.754-.559-7.61-1.178-11.308.012-.194.061-.207.283-.108.397.052.055.418.177.512.216.067.027.136.055.204.088 1.758.813 3.236 2.742 4.335 4.241a23.933 23.933 0 0 1 1.971 3.208zM74.655 63.14c2.635-3.907 6.833-6.236 11.44-6.912 4.536-.663 9.11.187 13.397 1.697 4.278 1.506 8.702 3.446 12.508 5.998a30.451 30.451 0 0 0-10.871.321c-4.1.872-7.721 2.685-11.287 4.843-3.81 2.306-7.823 4.814-12.422 4.91-2.55.056-4.607-.984-6.905-1.916a10.993 10.993 0 0 0-.45-.172c4.916-1.866 8.971-5.157 13.568-7.73 5.182-2.902 10.97-3.982 16.76-2.578.261.065.263-.166.01-.234-4.878-1.294-10.096-.824-14.704 1.185-3.247 1.221-6.372 2.762-9.443 4.372-2.042 1.071-4.1 2.25-6.256 3.114 1.967-1.859 3.153-4.672 4.655-6.898zm-16.343 8.394c.146-.124.723-.114.978-.119.694-.005 1.381.15 2.072.178 4.689.191 6.436-5.623 7.272-9.39.44-1.998.757-4.115 1.17-6.203-.133 1.301-.219 2.614-.346 3.927-.168 1.689-.443 3.357-.915 4.988-.54 1.858-1.287 4.268-2.676 5.672-.056.054-.106.105-.163.157-.075.07-.383.314-.41.387-.056.143.03.358.233.354 3.897-.075 7.333-2 10.696-3.829A136.567 136.567 0 0 1 82 64.686c-3.516 2.26-6.85 4.834-10.784 6.346a28.36 28.36 0 0 1-7.79 1.791c-1.364.116-3.138.355-4.458-.047-.38-.113-1.51-.52-.656-1.242zm7.453-19.37c1.379-3.531 4.093-6.204 6.962-8.469C74.994 41.905 77.35 40.118 80 39c-1.765 1.906-2.994 4.203-3.513 6.85-.678 3.449-.57 7.011-1.029 10.491-.474 3.617-1.62 7.502-4.46 9.892-.8.674-1.726 1.208-2.617 1.767.006-.018.014-.034.017-.05a25.742 25.742 0 0 0 1.304-5.135c.497-3.413.361-6.924 1.193-10.275.796-2.352 1.95-4.52 3.83-6.265.135-.124-.02-.365-.158-.242-5.142 4.638-5.142 11.95-6.778 18.286-.127.5-.274 1.029-.44 1.57-.21-1.278-.762-2.49-1.185-3.7-1.162-3.32-1.72-6.65-.4-10.024zm-2.02-33.283c4.986.372 10.046-.896 14.2-3.7.216-.147.138-.361-.085-.219-4.98 3.21-10.767 4.094-16.585 3.076-5.159-.904-10.043-2.651-15.275-2.788.124-.1.248-.201.366-.307 1.854-1.625 3.447-3.268 5.859-4.051 4.349-1.413 8.938-.38 13.273.526 4.06.853 8.05 1.362 12.186.838A30.485 30.485 0 0 0 88 9c-2.74 3.631-6.26 6.888-9.782 9.697-3.528 2.81-7.548 5.105-12.027 5.965-4.548.877-9.252.074-13.01-2.716-2.139-1.588-4.175-3.83-6.63-4.924 2.31.1 4.625.53 6.897.862 3.409.502 6.849.921 10.298.997zM95.3 79.55a33.817 33.817 0 0 0-5.3 1.436c3.283-1.449 6.723-2.424 10.197-2.82 2.308-.258 4.642-.24 6.929.212 1.239.243 2.524.585 3.687 1.148.139.068.642.298.897.519.76.637-.146 1.12-.728.9-.447-.172-1.252-.361-1.702-.49-2.143-.631-4.3-1.277-6.516-1.439-2.483-.179-5.008.082-7.464.534zm-11.354 3.093c-4.919 2.737-8.96 6.53-12.41 10.932-.1.13.087.286.197.163 3.758-4.285 7.876-8.004 12.893-10.751 5.308-2.364 11.279-3.676 17.032-3.637 1.134.007 2.244.128 3.342.313-1.197 4.179-4.91 6.981-8.793 8.722-4.468 2.008-9.266 3.387-13.895 4.991-4.515 1.564-8.817 3.276-12.648 6.186-2.837 2.16-5.526 4.583-7.664 7.437 1.35-3.967 2.727-7.919 4.474-11.734 3.528-7.706 8.807-15.228 16.698-18.987 6.495-3.094 14.7-3.304 20.578 1.028-1.36-.024-2.725.05-4.073.203-5.51.632-10.9 2.442-15.731 5.134zM93.745 8.01c-.47 1.626-1.16 3.196-2.402 4.255a3.915 3.915 0 0 0-.336-.524c3-2.33 2.357-7.046.04-9.853-2.992-3.63-7.994-5.022-12.517-4.454-1.055.137-2.076.406-3.114.63-.733.162-1.48.31-2.234.316-.408-.002-1.909-.172-.753-1.072.337-.233 1.086-.445 1.381-.536a18.357 18.357 0 0 1 8.145-.545c3.063.496 5.951 1.732 8.86 2.788 2.635.962 5.293 1.869 8.003 2.588 1.053.28 2.113.525 3.182.74C97.8 1.816 93.683.809 89.682-.76c-.32-.125-.565.327-.245.492 3.696 1.957 4.56 6.353 6.367 9.795 1.336 2.538 3.345 4.232 5.798 5.382-.042.14-.076.28-.102.425a9.286 9.286 0 0 1-1.402-.672c-1.207-.73-2.313-1.685-3.432-2.545-.132-.107-.386-.036-.358.167.206 1.619-.05 3.163-.353 4.716a4.913 4.913 0 0 0-.429-.021c.244-1.212.433-2.422.33-3.714-.153-1.914-.767-3.678-1.712-5.328-.104-.18-.347-.1-.4.073zM.669 59.084c-.09-3.38.382-6.775.073-10.152C.504 46.345-.468 44.015-2 42c2.484 1.357 4.612 3.319 6.648 5.274 2.583 2.48 4.971 5.332 5.962 8.856.945 3.372.058 6.5-1.424 9.55-.542 1.115-1.204 2.209-1.546 3.413a34.365 34.365 0 0 1-.268-1.553c-.95-6.234-.199-13.234-4.766-18.222-.124-.134-.297.081-.18.211 1.663 1.874 2.575 4.073 3.111 6.41.472 3.296-.025 6.64.114 9.96.07 1.703.321 3.4.748 5.053a.16.16 0 0 0 .016.048c-.818-.63-1.673-1.241-2.39-1.97-2.538-2.595-3.26-6.436-3.356-9.946zm-2.821-20.617c-.009.016-.017.03-.022.047-.71 2.615-3.69 4.168-6.343 3.192-3.287-1.212-3.084-5.692-.717-7.66 2.467-2.055 6.288-.946 7.087 2.14a4.42 4.42 0 0 1-.005 2.281zm-8.84 9.473a3.609 3.609 0 0 1 1.836-3.419c2.247-1.269 4.518-.105 5.062 2.236.503 2.17-1.064 4.41-3.541 4.233-1.812-.129-3.015-1.475-3.356-3.05zm70.68-45.866C57.391.994 54.923.28 52.458-.25A37.628 37.628 0 0 0 47-1c3.549-.01 7.107.44 10.516 1.396 2.266.635 4.47 1.519 6.501 2.75 1.1.666 2.21 1.433 3.144 2.35.108.106.516.491.692.77.524.824-.481.898-.966.495-.366-.311-1.078-.773-1.46-1.052-1.842-1.326-3.686-2.681-5.739-3.636zM39.612-.823C34.144.013 29.113 2.103 24.421 4.96c-.14.082-.022.292.122.216C29.483 2.53 34.557.535 40.123-.27c5.698-.355 11.64.484 16.91 2.48 1.04.395 2.02.883 2.967 1.425-2.553 3.421-6.934 4.72-11.105 4.99-4.805.314-9.694-.06-14.503-.17-4.693-.107-9.24-.008-13.768 1.352C17.266 10.81 13.954 12.117 11 14c2.617-3.17 5.25-6.322 8.18-9.223C25.094-1.077 32.554-6.163 41.111-6.91c7.04-.619 14.657 1.988 18.554 7.96a30.135 30.135 0 0 0-3.813-1.2c-5.283-1.303-10.866-1.484-16.24-.672zm2.525 49.86c.957 4.058 1.384 8.432-.143 12.409-.906 2.345-2.441 4.596-3.138 7.028-1.356-5.385-3.26-10.68-3.319-16.229.086-2.683.357-5.371.787-8.071.028-.164-.211-.189-.248-.037-1.364 5.905-1.413 12.266-.44 18.229.421 2.573.983 5.1 1.47 7.634-4.887-5.007-7.687-11.99-7.004-19.001.428-4.397 1.857-8.82 3.51-12.902C35.05 34.52 36.88 31.103 39.178 28c-1.913 7.033 1.342 14.187 2.96 21.036zM54 103.59c-2.164 2.464-4.708 4.446-7.184 6.59-2.237 1.932-4.365 4.153-5.23 7.037-.893 2.975-.359 6.186.882 8.982.648 1.464 1.484 2.832 2.405 4.137.49.691 1.011 1.36 1.532 2.03.513.658 1.471 1.56 1.715 2.366.781 2.601-1.612.477-2.103-.032a10.25 10.25 0 0 1-1.225-1.587c-.861-1.334-1.468-2.816-2.097-4.264-1.111-2.563-2.299-4.961-4.355-6.915-2.44-2.322-5.5-3.854-8.557-5.19-2.637-1.157-5.288-2.24-7.783-3.629.188.091.373.18.563.266 4.771 2.098 9.9 3.235 14.447 5.848.37.319.677.253.674-.156-.037-3.814-.492-7.584-1.897-11.154-1.313-3.33-3.216-6.387-4.998-9.483-2.277-3.954-4.173-8.115-5.57-12.436.096.259.195.52.299.777 1.303 3.239 2.915 6.341 4.71 9.336 1.982 3.303 4.149 6.507 5.823 9.982 1.937 4.018 3.002 8.319 3.088 12.771.006.363.552.327.612.003 1.442-7.424 8.9-10.548 14.249-15.279zM37.161 63.233c.594 2.36 1.18 4.71 1.59 7.117.097.586.177 1.173.249 1.763-.16.294-.317.586-.47.887-.497-3.41-1.383-6.795-1.943-10.143A53.86 53.86 0 0 1 36 58c.31 1.766.731 3.51 1.161 5.233zm-7.22 10.96c4.547 8.416 10.892 17.163 9.969 27.232-.264 2.879-1.436 5.228-2.41 7.89-.115-.336-.24-.668-.37-1-1.306-3.34-3.183-6.416-5.057-9.46-3.963-6.422-7.448-13.015-9.177-20.407-.944-4.043-1.404-8.209-1.162-12.353.012-.207-.307-.251-.322-.044-.31 4.301.077 8.553 1.02 12.706 1.142 6.657 3.327 12.972 6.64 18.916 1.796 3.214 3.786 6.342 5.2 9.747.36.855.66 1.714.911 2.58-1.498-1.592-3.318-2.952-5.039-4.25-3.963-3.004-7.285-6.575-9.587-11.006-4.816-9.286-4.06-19.893-1.725-29.766 1.2-5.064 2.743-10.044 4.403-14.978-.593 8.521 2.672 16.727 6.706 24.194zm30.356 19.048c-1.094 2.459-2.389 4.808-3.959 6.998-4.063 4.47-10.522 7.191-14.338 11.762a22.58 22.58 0 0 1 1.62-5.918c1.504-3.508 3.92-6.566 6.645-9.277 2.874-2.861 6.114-5.343 9.282-7.891C61.805 87.097 64.213 85.276 66 83c-1.955 7.715-2.137 15.994-8.076 22.138-3.092 3.202-7.106 4.629-11.095 6.476-.897.414-1.814.857-2.668 1.386a14.52 14.52 0 0 1 1.314-1.486c2.785-2.748 6.13-4.876 8.784-7.767 2.772-3.013 5.001-6.556 6.376-10.363.077-.213-.243-.35-.338-.143zm-29.548 17.73c1.395 1.75 2.224 3.864 3.251 5.842-3.444-1.517-7.118-2.525-10.614-3.928-2.277-.914-4.574-1.981-6.469-3.57-2.104-1.755-3.73-3.844-5.31-6.059-.324-.49-.63-.993-.921-1.502-.096-.167-.375-.057-.28.112 3.42 6.17 8.575 10.512 14.995 13.374 2.716 1.212 5.52 2.29 8.105 3.76-3.287-.297-6.63-.174-9.87-.962-3.97-.961-7.77-2.779-10.871-5.445C6.108 106.88 4.558 98.3 4 90c3.023 6.678 10.33 10.046 16.558 13.356 3.75 1.991 7.512 4.263 10.19 7.615zm3.1-84.503c-.01.016-.018.03-.025.046-.707 2.616-3.688 4.17-6.343 3.19-3.286-1.21-3.081-5.689-.713-7.659 2.464-2.053 6.285-.946 7.084 2.141a4.421 4.421 0 0 1-.004 2.282zm-21.08 20.538c-.016-.013-.03-.017-.046-.024a4.717 4.717 0 0 1-1.371-1.873c-1.243-3.025.972-6.276 4.064-6.102 2.963.167 5.8 3.722 4.044 6.732-1.412 2.428-4.592 2.98-6.691 1.267zm-4.814-12.98c1.484-.176 2.823.543 3.595 1.675.725 1.476.632 3.282-.703 4.462-1.829 1.618-4.465.736-5.442-1.32-1.05-2.216-.009-4.51 2.55-4.817zm18 1c1.482-.175 2.824.543 3.594 1.675.727 1.476.632 3.283-.702 4.464-1.827 1.613-4.464.735-5.443-1.32-1.049-2.218-.007-4.512 2.55-4.819zm-12.21-7.017c-.47 1.626-1.16 3.195-2.402 4.255a3.977 3.977 0 0 0-.336-.524c2.999-2.33 2.356-7.046.04-9.851-2.992-3.63-7.994-5.025-12.518-4.455-1.055.136-2.076.407-3.114.63-.733.163-1.479.31-2.234.315-.407-.001-1.907-.171-.753-1.072.337-.232 1.087-.444 1.382-.535a18.342 18.342 0 0 1 8.145-.544c3.062.496 5.952 1.732 8.858 2.786 2.636.962 5.295 1.87 8.005 2.588 1.052.28 2.113.526 3.182.742-4.2-.53-8.317-1.536-12.317-3.103-.321-.128-.565.324-.247.49 3.697 1.958 4.56 6.354 6.367 9.794 1.338 2.54 3.346 4.234 5.8 5.384-.044.139-.077.28-.104.423a9.408 9.408 0 0 1-1.4-.67c-1.208-.73-2.314-1.685-3.432-2.546-.133-.107-.386-.035-.359.168.206 1.619-.05 3.161-.353 4.716a4.565 4.565 0 0 0-.429-.021c.244-1.212.433-2.424.33-3.714-.153-1.914-.767-3.678-1.712-5.328-.104-.18-.347-.1-.4.072z" mask="url(#b)"/>
    </g>
</svg>
