<svg xmlns="http://www.w3.org/2000/svg" width="40" height="42" viewBox="0 0 40 42">
    <g fill="#749233" fill-rule="evenodd">
        <path d="M19.372 41.729c-8.675 0-16.443-5.494-19.33-13.67a.741.741 0 0 1 1.397-.493c2.678 7.585 9.885 12.681 17.933 12.681 10.483 0 19.013-8.529 19.013-19.013 0-10.483-8.53-19.011-19.013-19.011-8.048 0-15.255 5.095-17.933 12.68a.74.74 0 1 1-1.397-.494C2.93 6.234 10.697.741 19.372.741c11.3 0 20.494 9.193 20.494 20.493 0 11.301-9.194 20.495-20.494 20.495"/>
        <path d="M26.836 20.739l-5.926-6.577a.74.74 0 1 0-1.1.991l4.811 5.34H12.304a.741.741 0 0 0 0 1.482H24.62l-4.811 5.34a.741.741 0 0 0 1.1.992l5.926-6.577a.74.74 0 0 0 0-.991"/>
    </g>
</svg>
