<svg xmlns="http://www.w3.org/2000/svg" width="30" height="30" viewBox="0 0 30 30">
    <path fill="#6E4A39" fill-rule="evenodd" d="M17.383 13.655c-.398-.706 5.74-7.726 7.66-4.328 1.92 3.4-7.262 5.033-7.66 4.328m7.496 7.3c-2.015 3.344-7.953-3.848-7.536-4.541.419-.694 9.55 1.199 7.536 4.542M15 12.264c-.809 0-3.902-8.798 0-8.798 3.904 0 .811 8.798 0 8.798m-.326 14.267c-3.901-.11-.56-8.818.25-8.795.809.023 3.652 8.906-.25 8.795m-1.975-13.01c-.438.683-9.514-1.469-7.404-4.754 2.109-3.283 7.841 4.073 7.404 4.755m-7.899 6.865c-1.822-3.453 7.402-4.825 7.781-4.109.378.717-5.958 7.56-7.78 4.11M15 0C6.716 0 0 6.716 0 15c0 8.285 6.716 15 15 15 8.284 0 15-6.715 15-15 0-8.284-6.716-15-15-15"/>
</svg>
