<svg xmlns="http://www.w3.org/2000/svg" xmlns:xlink="http://www.w3.org/1999/xlink" width="114" height="114" viewBox="0 0 114 114">
    <defs>
        <circle id="a" cx="57" cy="57" r="57"/>
    </defs>
    <g fill="none" fill-rule="evenodd">
        <mask id="b" fill="#fff">
            <use xlink:href="#a"/>
        </mask>
        <use fill="#D8D8D8" fill-opacity="0" xlink:href="#a"/>
        <g fill="#FFF6E0" mask="url(#b)">
            <path d="M84.88 65.112c2.728-4.04 7.075-6.446 11.845-7.145 4.697-.685 9.434.194 13.872 1.754 4.43 1.557 9.011 3.562 12.952 6.2a31.588 31.588 0 0 0-11.257.332c-4.245.9-7.995 2.775-11.687 5.005-3.946 2.384-8.1 4.976-12.863 5.076-2.64.057-4.77-1.018-7.15-1.981a11.396 11.396 0 0 0-.465-.178c5.09-1.93 9.29-5.33 14.05-7.99 5.365-3 11.357-4.115 17.354-2.664.27.067.272-.172.01-.242-5.05-1.338-10.455-.852-15.226 1.225-3.362 1.262-6.598 2.854-9.778 4.519-2.115 1.107-4.246 2.326-6.478 3.218 2.037-1.921 3.265-4.83 4.82-7.13"/>
            <path d="M66.807 74.066c.152-.126.754-.115 1.02-.12.724-.006 1.441.152 2.162.18 4.891.194 6.714-5.703 7.586-9.523.46-2.027.79-4.174 1.22-6.292-.138 1.32-.228 2.65-.36 3.983-.176 1.713-.463 3.405-.955 5.059-.564 1.884-1.343 4.329-2.792 5.753-.058.055-.11.106-.17.159-.078.07-.399.318-.428.393-.058.145.031.363.244.359 4.065-.077 7.65-2.03 11.157-3.884a144.023 144.023 0 0 1 6.027-3.013c-3.668 2.293-7.145 4.904-11.25 6.437a30.297 30.297 0 0 1-8.127 1.817c-1.422.117-3.273.36-4.65-.048-.397-.115-1.575-.527-.684-1.26"/>
            <path d="M74.657 53.445c1.43-3.536 4.244-6.212 7.219-8.48 2.35-1.791 4.792-3.58 7.54-4.7-1.83 1.909-3.103 4.208-3.642 6.859-.702 3.452-.59 7.018-1.066 10.502-.492 3.62-1.68 7.51-4.625 9.902-.83.675-1.79 1.209-2.713 1.769.006-.018.014-.034.017-.051a25.05 25.05 0 0 0 1.352-5.14c.516-3.416.375-6.931 1.237-10.286.826-2.354 2.023-4.524 3.97-6.271.14-.124-.02-.366-.162-.242-5.332 4.642-5.332 11.963-7.028 18.305-.132.5-.284 1.03-.456 1.57-.22-1.278-.791-2.491-1.23-3.703-1.204-3.322-1.782-6.656-.413-10.034M72.627 18.82c5.19.389 10.455-.935 14.78-3.862.223-.154.142-.378-.09-.23-5.183 3.352-11.206 4.275-17.262 3.212-5.369-.944-10.452-2.768-15.898-2.911.13-.105.258-.21.381-.32 1.93-1.697 3.588-3.412 6.098-4.23 4.526-1.475 9.303-.396 13.815.55 4.225.89 8.38 1.422 12.683.874a31.66 31.66 0 0 0 10.737-3.4c-2.85 3.792-6.516 7.192-10.18 10.125-3.673 2.934-7.857 5.33-12.519 6.228-4.734.915-9.63.077-13.54-2.836-2.227-1.658-4.346-4-6.9-5.141 2.402.104 4.812.554 7.177.9 3.548.524 7.128.962 10.718 1.04"/>
            <path d="M54.496 15.566c4.379.096 8.522 1.412 12.743 2.367a138.754 138.754 0 0 1-6.684-.857c-3.922-.594-7.95-1.252-11.813.013-.203.065-.216.3-.113.422.055.059.437.188.535.23.07.029.142.058.213.093 1.837.865 3.38 2.916 4.529 4.51 1.012 1.398 1.84 2.902 2.572 4.463.563 1.21 1.088 2.439 1.655 3.638-1.107-1.858-2.125-3.775-3.227-5.537-2.08-3.32-5.75-8.287-10.303-6.488-.672.267-1.295.65-1.981.883-.255.083-.817.289-1.001.222-1.084-.396-.107-1.173.225-1.413 1.166-.842 2.996-1.22 4.377-1.58a30.21 30.21 0 0 1 8.273-.966"/>
            <path d="M63.942 29.142c1.596 3.133 2.663 6.536 4.467 9.564 1.383 2.326 3.344 4.076 5.696 5.272-2.956-.152-5.854-1.033-8.662-1.95-3.56-1.161-7.1-2.758-9.612-5.623-2.408-2.737-2.963-6.076-2.92-9.61.015-1.291.153-2.622-.06-3.903.338.454.656.904.949 1.335 3.688 5.428 6.104 12.342 12.672 14.96.173.07.243-.21.074-.28-2.418-1.004-4.263-2.661-5.818-4.611-1.923-2.884-2.945-6.247-4.56-9.301a25.132 25.132 0 0 0-2.973-4.41c-.008-.012-.024-.026-.033-.04 1.058.225 2.142.41 3.143.775 3.57 1.288 5.976 4.567 7.637 7.822M105.318 81.978a39.577 39.577 0 0 0-5.463 1.268c3.384-1.28 6.93-2.14 10.51-2.49 2.38-.227 4.786-.211 7.143.188 1.277.214 2.602.516 3.8 1.013.144.06.663.263.925.458.783.563-.15.989-.75.795-.461-.152-1.291-.32-1.754-.432-2.21-.558-4.433-1.128-6.717-1.271-2.56-.158-5.162.072-7.694.47"/>
            <path d="M93.588 85.461c-5.03 2.817-9.164 6.721-12.693 11.25-.103.134.09.295.201.168 3.844-4.41 8.056-8.237 13.188-11.064 5.43-2.433 11.536-3.783 17.421-3.743 1.16.007 2.295.132 3.418.322-1.224 4.301-5.023 7.185-8.994 8.976-4.57 2.067-9.477 3.486-14.212 5.137-4.618 1.61-9.018 3.371-12.937 6.366-2.902 2.222-5.652 4.716-7.839 7.653 1.381-4.082 2.79-8.149 4.576-12.076 3.61-7.93 9.008-15.67 17.08-19.539 6.643-3.184 15.035-3.4 21.047 1.058a31.663 31.663 0 0 0-4.166.21c-5.636.65-11.149 2.512-16.09 5.282M122.715 58.266c-.129-.463-.453-1.25-.618-1.696-.773-2.146-1.532-4.309-2.688-6.281-1.298-2.218-2.94-4.252-4.68-6.128a39.727 39.727 0 0 0-4.1-3.829c2.95 2.093 5.641 4.56 7.926 7.339 1.516 1.845 2.844 3.853 3.828 6.03.534 1.185 1.023 2.448 1.276 3.723.03.15.15.696.136 1.025-.029.962-.906.425-1.08-.183"/>
            <path d="M107.383 50.073c-4.264-2.647-8.178-5.931-12.187-8.94-3.913-2.934-7.825-5.608-12.495-7.19-3.464-1.172-7.067-2.064-10.725-2.242 4.158-1.131 8.323-2.228 12.577-2.934 8.598-1.425 18.033-1.256 25.744 3.29 6.344 3.739 11.205 10.588 10.854 18.06a31.265 31.265 0 0 0-2.498-3.34c-3.68-4.315-8.302-7.856-13.358-10.415-5.14-2.604-10.683-3.861-16.412-4.266-.168-.01-.195.24-.029.26 5.808.735 11.33 2.099 16.537 4.785 5.045 3.15 9.572 7.468 12.82 12.374.64.968 1.17 1.98 1.64 3.018-4.255 1.38-8.769-.163-12.468-2.46M104.483 7.069c.055-.182.312-.265.422-.077.998 1.724 1.646 3.566 1.807 5.566.109 1.349-.09 2.613-.348 3.879.152 0 .303.008.453.022.32-1.622.59-3.235.373-4.926-.03-.212.238-.286.378-.175 1.18.899 2.349 1.897 3.624 2.659.476.28.97.506 1.48.702.028-.152.063-.298.108-.444-2.59-1.201-4.712-2.971-6.123-5.622-1.908-3.595-2.82-8.187-6.723-10.231-.337-.173-.08-.645.259-.514 4.225 1.638 8.573 2.69 13.007 3.242a56.56 56.56 0 0 1-3.36-.774c-2.861-.751-5.668-1.698-8.451-2.703-3.071-1.103-6.121-2.394-9.355-2.912a19.586 19.586 0 0 0-8.6.569c-.312.095-1.103.316-1.46.56-1.22.94.366 1.117.796 1.12.797-.006 1.585-.161 2.359-.331 1.096-.233 2.174-.514 3.288-.658 4.776-.593 10.058.86 13.217 4.653 2.447 2.932 3.125 7.858-.042 10.292.134.176.254.358.355.547 1.31-1.106 2.04-2.746 2.536-4.444M2.472 79.317c-4.724-.613-8.575-3.64-12.239-6.436-3.43-2.618-6.953-4.885-11.076-6.241A31.608 31.608 0 0 0-32 65.092c4.21-2.194 8.976-3.692 13.55-4.762 4.577-1.07 9.38-1.435 13.978-.243 4.668 1.209 8.727 4.07 11.006 8.382 1.294 2.455 2.207 5.479 4.021 7.61-2.125-1.128-4.109-2.572-6.094-3.901-2.982-2-6.025-3.932-9.232-5.547-4.518-2.582-9.838-3.65-15.003-2.866-.269.042-.292.279-.017.243 6.12-.795 11.95.962 16.965 4.525 4.442 3.158 8.25 6.992 13.102 9.459-.16.04-.32.083-.48.128-2.47.7-4.704 1.539-7.324 1.197"/>
            <path d="M-.287 69.746a139.766 139.766 0 0 1 5.667 3.65c3.287 2.222 6.642 4.549 10.677 5.07.21.026.322-.182.277-.337-.02-.079-.312-.356-.38-.434a3.31 3.31 0 0 1-.157-.178c-1.288-1.572-1.793-4.085-2.15-6.02-.31-1.698-.414-3.41-.405-5.132.013-1.34.07-2.674.075-4 .201 2.154.296 4.324.533 6.389.451 3.89 1.625 9.953 6.513 10.286.72.047 1.45-.03 2.166.055.263.034.864.088 1 .228.805.826-.408 1.109-.81 1.18-1.414.258-3.23-.186-4.63-.454a30.217 30.217 0 0 1-7.884-2.687c-3.917-1.968-7.09-4.938-10.492-7.616"/>
            <path d="M7.512 61.046c-.095-3.515.401-7.047.076-10.559-.25-2.69-1.27-5.114-2.88-7.21 2.61 1.411 4.845 3.452 6.985 5.486 2.714 2.578 5.223 5.545 6.264 9.211.993 3.507.061 6.76-1.496 9.933-.57 1.16-1.265 2.297-1.625 3.55a35.412 35.412 0 0 1-.28-1.616c-.999-6.484-.21-13.764-5.009-18.953-.13-.139-.312.085-.189.22 1.747 1.95 2.705 4.236 3.27 6.667.495 3.428-.028 6.906.118 10.36a25.06 25.06 0 0 0 .786 5.255.165.165 0 0 0 .017.05c-.859-.655-1.758-1.29-2.512-2.049-2.666-2.699-3.425-6.694-3.525-10.345M3.721 38.707a4.557 4.557 0 0 0 .005-2.283c-.775-3.087-4.48-4.196-6.872-2.14-2.295 1.97-2.492 6.451.695 7.663 2.572.977 5.463-.577 6.151-3.193.005-.018.013-.03.021-.047M-4.962 49.174c.337 1.633 1.529 3.03 3.322 3.163 2.452.183 4.004-2.139 3.505-4.39-.538-2.428-2.787-3.635-5.01-2.319-1.288.766-1.908 2.162-1.817 3.546M75.292.62c-2.34-1.05-4.856-1.747-7.368-2.261a40.02 40.02 0 0 0-5.56-.731c3.615-.008 7.241.43 10.714 1.36 2.31.619 4.555 1.478 6.625 2.677 1.121.65 2.252 1.397 3.203 2.288.11.104.526.48.705.751.534.803-.49.875-.984.481-.373-.302-1.098-.751-1.488-1.023C79.262 2.87 77.383 1.55 75.292.62"/>
            <path d="M55.716-2.5c-5.698.88-10.94 3.078-15.83 6.083-.145.087-.023.308.127.228 5.148-2.783 10.435-4.883 16.236-5.73 5.937-.374 12.128.51 17.62 2.608 1.084.416 2.106.93 3.092 1.5-2.66 3.6-7.226 4.967-11.572 5.251-5.007.33-10.1-.063-15.113-.179-4.89-.113-9.629-.009-14.346 1.422-3.5 1.058-6.95 2.432-10.029 4.413 2.727-3.336 5.47-6.652 8.524-9.704 6.163-6.16 13.936-11.51 22.853-12.298 7.335-.65 15.273 2.092 19.334 8.375a31.183 31.183 0 0 0-3.973-1.263c-5.506-1.37-11.323-1.56-16.923-.706M52.137 79.05a1.455 1.455 0 0 1-.103.128c-2.542 3.296-4.297 7.016-5.313 10.971.145.394.288.792.42 1.186.556-2.408 1.368-4.77 2.304-6.986.764-1.8 1.66-3.589 2.692-5.3M50.626 49.921c-1.663-7.105-5.01-14.527-3.043-21.823-2.363 3.22-4.245 6.764-5.725 10.475-1.7 4.234-3.17 8.823-3.61 13.384-.702 7.274 2.178 14.518 7.203 19.712-.5-2.629-1.078-5.25-1.512-7.92-1-6.186-.949-12.785.453-18.91.038-.158.284-.132.255.038a67.336 67.336 0 0 0-.809 8.373c.061 5.757 2.02 11.25 3.413 16.836.717-2.523 2.296-4.858 3.228-7.29 1.57-4.127 1.131-8.664.147-12.875"/>
            <path d="M59.83 83.266c2.633-3.417 4.778-7.146 6.28-11.192 2.808-7.553 3.362-15.813 1.68-23.67-2.069 8.602-9.656 14.178-15.394 20.442-3.362 3.664-5.948 7.808-7.424 12.574a35.441 35.441 0 0 0-1.06 4.482 65.039 65.039 0 0 1 2.363 5.104 31.135 31.135 0 0 1 4.298-8.928c3.505-5.005 8.764-8.746 10.694-14.754.05-.162.327-.082.285.08-1.003 3.649-3.301 6.523-5.729 9.312-2.289 3.091-4.328 6.284-5.819 9.875-1.134 2.733-1.848 5.505-2.366 8.346.29 1.034.535 2.083.715 3.142.866-1.522 1.86-2.976 2.898-4.372 2.705-3.608 5.83-6.872 8.58-10.441"/>
            <path d="M62.016 106.47c-5.542 4.941-13.27 8.204-14.764 15.957-.062.34-.628.376-.634-.003-.089-4.65-1.192-9.142-3.199-13.338-1.735-3.629-3.98-6.975-6.033-10.425-1.86-3.128-3.53-6.368-4.88-9.75a32.16 32.16 0 0 1-.31-.812c1.447 4.513 3.411 8.86 5.771 12.988 1.846 3.234 3.818 6.426 5.178 9.904 1.456 3.73 1.927 7.666 1.966 11.65.003.426-.316.495-.699.162-4.71-2.729-10.025-3.916-14.969-6.107-.197-.09-.388-.183-.583-.278 2.585 1.451 5.332 2.581 8.064 3.79 3.167 1.395 6.34 2.995 8.866 5.42 2.131 2.041 3.361 4.545 4.513 7.222.651 1.513 1.28 3.06 2.172 4.454.371.586.788 1.15 1.27 1.657.508.532 2.988 2.75 2.18.033-.254-.842-1.247-1.783-1.778-2.47-.54-.7-1.08-1.399-1.588-2.12-.954-1.364-1.82-2.792-2.492-4.32-1.285-2.922-1.839-6.275-.914-9.382.897-3.012 3.102-5.332 5.42-7.35 2.565-2.239 5.201-4.309 7.443-6.882M45.3 64.978c-.487-1.795-.963-3.613-1.314-5.454.14 1.687.356 3.374.664 5.062.634 3.49 1.636 7.017 2.2 10.572.171-.314.35-.618.53-.925a42.416 42.416 0 0 0-.28-1.837c-.466-2.508-1.128-4.96-1.8-7.418"/>
            <path d="M37.717 76.232c-4.138-7.687-7.487-16.134-6.878-24.906-1.703 5.079-3.286 10.206-4.517 15.419-2.396 10.163-3.171 21.083 1.77 30.642 2.36 4.561 5.768 8.238 9.834 11.329 1.765 1.337 3.632 2.737 5.169 4.376a23.993 23.993 0 0 0-.935-2.656c-1.45-3.505-3.492-6.725-5.333-10.034-3.4-6.119-5.641-12.62-6.812-19.473-.967-4.275-1.364-8.652-1.046-13.08.015-.213.342-.167.33.046-.248 4.266.223 8.554 1.192 12.716 1.773 7.61 5.348 14.397 9.413 21.008 1.923 3.134 3.848 6.3 5.188 9.738.134.342.26.684.38 1.03.998-2.741 2.2-5.159 2.47-8.122.948-10.366-5.56-19.37-10.225-28.033zM68.295 96.181c.097-.22.424-.075.346.151-1.408 4.043-3.69 7.804-6.528 11.003-2.717 3.07-6.14 5.329-8.992 8.247-.492.505-.94 1.03-1.346 1.578.875-.562 1.813-1.032 2.732-1.472 4.083-1.961 8.193-3.476 11.358-6.876 6.08-6.523 6.267-15.313 8.268-23.505-1.829 2.417-4.295 4.35-6.606 6.28-3.243 2.706-6.56 5.341-9.503 8.379-2.789 2.878-5.263 6.125-6.803 9.85a24.675 24.675 0 0 0-1.658 6.283c3.907-4.853 10.52-7.743 14.68-12.488 1.606-2.325 2.932-4.82 4.052-7.43M38.163 114.465c-2.802-3.525-6.738-5.913-10.662-8.007-6.518-3.48-14.164-7.02-17.326-14.043.583 8.727 2.205 17.75 9.17 23.755 3.247 2.804 7.223 4.715 11.377 5.726 3.389.828 6.887.7 10.327 1.011-2.705-1.546-5.64-2.679-8.482-3.953-6.717-3.01-12.111-7.576-15.688-14.063-.1-.177.192-.293.291-.117.304.535.625 1.063.965 1.58 1.652 2.328 3.354 4.524 5.555 6.37 1.983 1.67 4.387 2.792 6.77 3.753 3.658 1.476 7.502 2.535 11.105 4.131-1.075-2.08-1.941-4.304-3.401-6.143M38.38 26.145a4.558 4.558 0 0 0 .004-2.283c-.775-3.088-4.48-4.196-6.87-2.142-2.298 1.97-2.496 6.45.691 7.663 2.575.979 5.466-.575 6.152-3.192.006-.017.014-.03.023-.046M18.22 46.319c2.14 1.654 5.38 1.12 6.818-1.223 1.79-2.905-1.1-6.336-4.12-6.497-3.15-.168-5.409 2.97-4.142 5.889.325.75.812 1.353 1.397 1.808.016.007.031.01.047.023M12.816 33.503c-2.566.312-3.61 2.642-2.557 4.893.98 2.09 3.623 2.985 5.457 1.341 1.338-1.198 1.43-3.033.704-4.533-.774-1.15-2.116-1.88-3.604-1.7M31.163 34.007c-2.564.312-3.609 2.642-2.557 4.895.981 2.088 3.625 2.981 5.458 1.342 1.336-1.2 1.432-3.036.703-4.536-.771-1.15-2.117-1.879-3.604-1.7M19.087 27.466c.055-.18.312-.263.422-.075.998 1.724 1.646 3.566 1.807 5.566.11 1.347-.09 2.613-.348 3.88.152 0 .303.007.453.021.32-1.624.59-3.235.373-4.926-.029-.212.238-.287.38-.176 1.18.9 2.347 1.897 3.622 2.66.476.28.971.504 1.48.7.028-.15.062-.297.108-.442-2.59-1.2-4.71-2.97-6.123-5.624-1.908-3.593-2.82-8.185-6.723-10.23-.336-.174-.079-.646.26-.513 4.224 1.637 8.572 2.688 13.006 3.242a57.994 57.994 0 0 1-3.36-.775c-2.86-.75-5.669-1.699-8.452-2.704-3.069-1.1-6.12-2.392-9.354-2.91a19.57 19.57 0 0 0-8.6.568c-.312.095-1.104.317-1.459.56-1.219.94.365 1.118.795 1.12.797-.006 1.585-.16 2.36-.33 1.095-.233 2.173-.516 3.287-.658 4.777-.595 10.058.861 13.217 4.653 2.446 2.93 3.125 7.856-.042 10.291.134.176.254.36.355.547 1.311-1.107 2.04-2.746 2.536-4.445"/>
        </g>
    </g>
</svg>
