<?xml version="1.0" encoding="utf-8"?>
<!-- Generator: Adobe Illustrator 21.1.0, SVG Export Plug-In . SVG Version: 6.00 Build 0)  -->
<svg version="1.1" id="圖層_1" xmlns:sketch="http://www.bohemiancoding.com/sketch/ns"
	 xmlns="http://www.w3.org/2000/svg" xmlns:xlink="http://www.w3.org/1999/xlink" x="0px" y="0px" viewBox="0 0 16 16"
	 style="enable-background:new 0 0 16 16;" xml:space="preserve">
<style type="text/css">
	.st0{fill:#F29700;}
</style>
<title></title>
<g id="Icons_with_numbers">
	<g id="Group" transform="translate(-288.000000, -192.000000)">
		<path id="Oval_208" class="st0" d="M291,198c0-0.2,0-0.3,0-0.5c0-3,2.2-5.5,5-5.5s5,2.5,5,5.5c0,0.2,0,0.3,0,0.5h0c0,3-5,10-5,10
			S291,201,291,198L291,198z M296,199c1.1,0,2-0.9,2-2s-0.9-2-2-2s-2,0.9-2,2S294.9,199,296,199z"/>
	</g>
</g>
</svg>
