<?xml version="1.0" encoding="utf-8"?>
<!-- Generator: Adobe Illustrator 21.1.0, SVG Export Plug-In . SVG Version: 6.00 Build 0)  -->
<svg version="1.1" id="圖層_1" xmlns="http://www.w3.org/2000/svg" xmlns:xlink="http://www.w3.org/1999/xlink" x="0px" y="0px"
	 viewBox="0 0 83 196" style="enable-background:new 0 0 83 196;" xml:space="preserve">
<style type="text/css">
	.st0{display:none;}
	.st1{display:inline;fill:#656565;}
	.st2{display:inline;fill:#FFFFFF;}
	.st3{fill:#656565;}
	.st4{fill:#FFFFFF;}
</style>
<g class="st0">
	<path class="st1" d="M78.7,2.5v6.1c0,4.3-1.5,7.3-5.2,7.3c-2.1,0-3.9-1.1-4.6-3.2h-0.1c-0.5,2.6-2.2,4.4-5.1,4.4
		c-4.1,0-6.2-3.3-6.2-8V2.5H78.7z M59.4,8.7c0,3.8,1.4,6.1,4.4,6.1c2.7,0,4-2.2,4-6.1V4.9h-8.4V8.7z M69.6,8.1
		c0,3.8,1.4,5.4,3.6,5.4c2.6,0,3.6-1.8,3.6-5.2V4.9h-7.2V8.1z"/>
	<path class="st1" d="M73.2,21.2v1.9l-2.9,0.2v0.1c2,1.1,3.3,2.7,3.3,4.4c0,0.7-0.1,1.1-0.3,1.7L71.2,29c0.2-0.5,0.3-0.9,0.3-1.5
		c0-1.3-1-3-3.7-4H57.5v-2.3H73.2z"/>
	<path class="st1" d="M61.5,30.4c3.4,0,5.1,3,5.9,9.7c2.1,0,4.2-0.6,4.2-3.3c0-1.9-0.9-3.6-1.7-4.8l1.7-1c0.9,1.4,2.1,3.6,2.1,6.1
		c0,3.8-2.6,5.3-6.4,5.3h-9.7v-1.9l1.9-0.2v-0.1c-1.3-1.5-2.3-3.3-2.3-5.3C57.1,32.4,58.7,30.4,61.5,30.4z M61.2,40.1h4.6
		c-0.6-5.5-2-7.4-4.1-7.4c-1.9,0-2.6,1.3-2.6,2.9S59.8,38.5,61.2,40.1z"/>
	<path class="st1" d="M73.2,47.6v1.9l-2.3,0.2v0.1c1.5,1.5,2.7,3.1,2.7,5.3c0,3.3-2.1,4.8-6.1,4.8h-9.9v-2.4h9.7
		c3,0,4.4-0.9,4.4-3.1c0-1.7-0.9-2.8-2.6-4.5H57.5v-2.3H73.2z"/>
	<path class="st1" d="M65.3,64c5.1,0,8.3,3.2,8.3,6.8c0,1.9-0.7,3.1-1.9,4.5l2.7-0.1h6.1v2.3H57.5v-1.9l1.9-0.2v-0.1
		c-1.2-1.2-2.3-2.9-2.3-4.8C57.1,66.5,60.1,64,65.3,64z M61.4,75.2h8.5c1.2-1.4,1.7-2.6,1.7-4c0-2.7-2.6-4.7-6.2-4.7
		c-3.9,0-6.2,1.6-6.2,4.5C59.1,72.4,59.9,73.8,61.4,75.2z"/>
	<path class="st1" d="M60.3,88.1l1.7,1.5c-1.7,1.5-2.7,3.7-2.7,5.9c0,2.9,1.5,4.7,3.7,4.7c2.3,0,3-1.6,3.9-3.6l1.4-3.1
		c0.8-2,2.3-4.3,5.4-4.3c3.2,0,5.5,2.8,5.5,6.6c0,2.6-1.1,4.7-2.6,6.2l-1.5-1.3c1.2-1.3,2-2.9,2-4.9c0-2.5-1.2-4.1-3.2-4.1
		c-2.2,0-3,1.9-3.7,3.5l-1.3,3.1c-1.1,2.4-2.5,4.4-5.7,4.4c-3.3,0-5.9-2.8-5.9-7.1C57.1,92.4,58.3,89.9,60.3,88.1z"/>
	<path class="st1" d="M62.2,106.3h9v-2.4H73l0.1,2.5l4.4,0.3v2h-4.4v4.3h-1.9v-4.3h-9.1c-1.9,0-3.1,0.6-3.1,2.5
		c0,0.6,0.2,1.3,0.4,1.8l-1.8,0.5c-0.3-0.9-0.6-1.9-0.6-2.8C57.1,107.4,59.2,106.3,62.2,106.3z"/>
	<path class="st1" d="M65.3,114.9c5.3,0,8.3,3.4,8.3,7.2c0,3.8-3,7.2-8.3,7.2c-5.2,0-8.2-3.4-8.2-7.2
		C57.1,118.3,60.1,114.9,65.3,114.9z M65.3,126.9c3.7,0,6.3-2,6.3-4.8c0-2.8-2.5-4.8-6.3-4.8c-3.7,0-6.2,1.9-6.2,4.8
		C59.1,124.9,61.6,126.9,65.3,126.9z"/>
	<path class="st1" d="M73.2,133.6v1.9l-2.9,0.2v0.1c2,1.1,3.3,2.7,3.3,4.4c0,0.7-0.1,1.1-0.3,1.7l-2.1-0.5c0.2-0.5,0.3-0.9,0.3-1.5
		c0-1.3-1-3-3.7-4H57.5v-2.3H73.2z"/>
	<path class="st1" d="M51,143.7l1.9,0.5c-0.1,0.3-0.2,0.8-0.2,1.2c0,1.8,1.5,3,3.5,3.7l1.2,0.3l15.8-6.3v2.5l-9,3.3
		c-1.4,0.5-3,1-4.4,1.6v0.1c1.4,0.4,3,0.9,4.4,1.3l9,2.9v2.3l-17.1-6c-3-1-5.4-2.7-5.4-5.7C50.7,144.8,50.8,144.2,51,143.7z"/>
</g>
<g class="st0">
	<path class="st2" d="M37.7,2.5v6.1c0,4.3-1.5,7.3-5.2,7.3c-2.1,0-3.9-1.1-4.6-3.2h-0.1c-0.5,2.6-2.2,4.4-5.1,4.4
		c-4.1,0-6.2-3.3-6.2-8V2.5H37.7z M18.4,8.7c0,3.8,1.4,6.1,4.4,6.1c2.7,0,4-2.2,4-6.1V4.9h-8.4V8.7z M28.6,8.1
		c0,3.8,1.4,5.4,3.6,5.4c2.6,0,3.6-1.8,3.6-5.2V4.9h-7.2V8.1z"/>
	<path class="st2" d="M32.2,21.2v1.9l-2.9,0.2v0.1c2,1.1,3.3,2.7,3.3,4.4c0,0.7-0.1,1.1-0.3,1.7L30.2,29c0.2-0.5,0.3-0.9,0.3-1.5
		c0-1.3-1-3-3.7-4H16.5v-2.3H32.2z"/>
	<path class="st2" d="M20.5,30.4c3.4,0,5.1,3,5.9,9.7c2.1,0,4.2-0.6,4.2-3.3c0-1.9-0.9-3.6-1.7-4.8l1.7-1c0.9,1.4,2.1,3.6,2.1,6.1
		c0,3.8-2.6,5.3-6.4,5.3h-9.7v-1.9l1.9-0.2v-0.1c-1.3-1.5-2.3-3.3-2.3-5.3C16.1,32.4,17.7,30.4,20.5,30.4z M20.2,40.1h4.6
		c-0.6-5.5-2-7.4-4.1-7.4c-1.9,0-2.6,1.3-2.6,2.9S18.8,38.5,20.2,40.1z"/>
	<path class="st2" d="M32.2,47.6v1.9l-2.3,0.2v0.1c1.5,1.5,2.7,3.1,2.7,5.3c0,3.3-2.1,4.8-6.1,4.8h-9.9v-2.4h9.7
		c3,0,4.4-0.9,4.4-3.1c0-1.7-0.9-2.8-2.6-4.5H16.5v-2.3H32.2z"/>
	<path class="st2" d="M24.3,64c5.1,0,8.3,3.2,8.3,6.8c0,1.9-0.7,3.1-1.9,4.5l2.7-0.1h6.1v2.3H16.5v-1.9l1.9-0.2v-0.1
		c-1.2-1.2-2.3-2.9-2.3-4.8C16.1,66.5,19.1,64,24.3,64z M20.4,75.2h8.5c1.2-1.4,1.7-2.6,1.7-4c0-2.7-2.6-4.7-6.2-4.7
		c-3.9,0-6.2,1.6-6.2,4.5C18.1,72.4,18.9,73.8,20.4,75.2z"/>
	<path class="st2" d="M19.3,88.1l1.7,1.5c-1.7,1.5-2.7,3.7-2.7,5.9c0,2.9,1.5,4.7,3.7,4.7c2.3,0,3-1.6,3.9-3.6l1.4-3.1
		c0.8-2,2.3-4.3,5.4-4.3c3.2,0,5.5,2.8,5.5,6.6c0,2.6-1.1,4.7-2.6,6.2l-1.5-1.3c1.2-1.3,2-2.9,2-4.9c0-2.5-1.2-4.1-3.2-4.1
		c-2.2,0-3,1.9-3.7,3.5l-1.3,3.1c-1.1,2.4-2.5,4.4-5.7,4.4c-3.3,0-5.9-2.8-5.9-7.1C16.1,92.4,17.3,89.9,19.3,88.1z"/>
	<path class="st2" d="M21.2,106.3h9v-2.4H32l0.1,2.5l4.4,0.3v2h-4.4v4.3h-1.9v-4.3h-9.1c-1.9,0-3.1,0.6-3.1,2.5
		c0,0.6,0.2,1.3,0.4,1.8l-1.8,0.5c-0.3-0.9-0.6-1.9-0.6-2.8C16.1,107.4,18.2,106.3,21.2,106.3z"/>
	<path class="st2" d="M24.3,114.9c5.3,0,8.3,3.4,8.3,7.2c0,3.8-3,7.2-8.3,7.2c-5.2,0-8.2-3.4-8.2-7.2
		C16.1,118.3,19.1,114.9,24.3,114.9z M24.3,126.9c3.7,0,6.3-2,6.3-4.8c0-2.8-2.5-4.8-6.3-4.8c-3.7,0-6.2,1.9-6.2,4.8
		C18.1,124.9,20.6,126.9,24.3,126.9z"/>
	<path class="st2" d="M32.2,133.6v1.9l-2.9,0.2v0.1c2,1.1,3.3,2.7,3.3,4.4c0,0.7-0.1,1.1-0.3,1.7l-2.1-0.5c0.2-0.5,0.3-0.9,0.3-1.5
		c0-1.3-1-3-3.7-4H16.5v-2.3H32.2z"/>
	<path class="st2" d="M10,143.7l1.9,0.5c-0.1,0.3-0.2,0.8-0.2,1.2c0,1.8,1.5,3,3.5,3.7l1.2,0.3l15.8-6.3v2.5l-9,3.3
		c-1.4,0.5-3,1-4.4,1.6v0.1c1.4,0.4,3,0.9,4.4,1.3l9,2.9v2.3l-17.1-6c-3-1-5.4-2.7-5.4-5.7C9.7,144.8,9.8,144.2,10,143.7z"/>
</g>
<g>
	<path class="st3" d="M78.9,2.3v5.9c0,4.8-1.6,7.9-6.1,7.9c-4.4,0-6.5-3.1-6.5-7.8V4.7h-8.6V2.3H78.9z M68.2,7.9
		c0,3.9,1.4,5.7,4.5,5.7c3.2,0,4.2-2,4.2-5.9V4.7h-8.7V7.9z"/>
	<path class="st3" d="M65.5,18.2c5.3,0,8.3,3.4,8.3,7.2c0,3.8-3,7.2-8.3,7.2c-5.2,0-8.2-3.4-8.2-7.2C57.3,21.6,60.3,18.2,65.5,18.2z
		 M65.5,30.2c3.7,0,6.3-2,6.3-4.8c0-2.8-2.5-4.8-6.3-4.8c-3.7,0-6.2,1.9-6.2,4.8C59.3,28.2,61.8,30.2,65.5,30.2z"/>
	<path class="st3" d="M73.3,36.9v1.9l-1.8,0.2v0.1c1.2,1.5,2.2,3.2,2.2,5c0,4.1-3.2,6.3-8,6.3c-5.4,0-8.5-3.2-8.5-6.8
		c0-1.5,0.7-2.9,1.8-4.4l-2.8,0.1h-5.4v-2.3H73.3z M65.7,48c3.5,0,6-1.2,6-4.4c0-1.4-0.8-2.8-2.3-4.4H61c-1.3,1.5-1.7,2.9-1.7,4
		C59.3,46,61.8,48,65.7,48z"/>
	<path class="st3" d="M59.4,52.9l1.6,1.2c-1.1,1.4-1.9,2.8-1.9,4.7c0,2.2,1.2,3.2,2.6,3.2c1.7,0,2.4-1.9,3.1-3.7
		c0.8-2.2,1.9-4.7,4.5-4.7c2.4,0,4.4,1.9,4.4,5.3c0,1.9-0.8,3.6-1.7,4.8l-1.5-1.1c0.8-1.1,1.4-2.2,1.4-3.6c0-2.1-1.1-3-2.4-3
		c-1.6,0-2.2,1.7-2.8,3.5c-0.9,2.3-1.8,4.8-4.8,4.8c-2.5,0-4.6-2-4.6-5.6C57.3,56.5,58.2,54.4,59.4,52.9z"/>
	<path class="st3" d="M73.3,68.2v2.3H57.7v-2.3H73.3z M78.3,67.7c1,0,1.6,0.7,1.6,1.7c0,0.9-0.6,1.7-1.6,1.7c-0.9,0-1.6-0.8-1.6-1.7
		C76.7,68.4,77.4,67.7,78.3,67.7z"/>
	<path class="st3" d="M65.5,74.8c5.3,0,8.3,3.5,8.3,7.5c0,2.1-0.9,3.5-1.9,4.6l-1.6-1.2c0.9-0.9,1.5-1.9,1.5-3.2
		c0-2.9-2.5-5.1-6.3-5.1c-3.7,0-6.2,2-6.2,5c0,1.5,0.7,2.8,1.6,3.8l-1.6,1c-1.2-1.4-2-3.1-2-5C57.3,77.9,60.3,74.8,65.5,74.8z"/>
	<path class="st3" d="M60.5,90.7h20.2V93H60.4c-0.8,0-1.1,0.3-1.1,0.7c0,0.1,0,0.3,0.1,0.6l-1.8,0.3c-0.1-0.4-0.2-0.8-0.2-1.4
		C57.3,91.4,58.4,90.7,60.5,90.7z"/>
	<path class="st3" d="M65.5,97.5c5.1,0,8.3,3.4,8.3,7c0,3.9-2.8,6.2-7.3,6.2c-0.5,0-1,0-1.4-0.1V99.9c-3.5,0.1-5.8,2.2-5.8,5.4
		c0,1.5,0.5,2.8,1.3,4l-1.6,0.9c-0.9-1.4-1.6-3-1.6-5.1C57.3,100.8,60.3,97.5,65.5,97.5z M66.7,108.6c3.4,0,5.1-1.5,5.1-4.1
		c0-2.3-1.9-4.4-5.1-4.7V108.6z"/>
	<path class="st3" d="M59.4,119.3l1.6,1.2c-1.1,1.4-1.9,2.8-1.9,4.7c0,2.2,1.2,3.2,2.6,3.2c1.7,0,2.4-1.9,3.1-3.7
		c0.8-2.2,1.9-4.7,4.5-4.7c2.4,0,4.4,1.9,4.4,5.3c0,1.9-0.8,3.6-1.7,4.8l-1.5-1.1c0.8-1.1,1.4-2.2,1.4-3.6c0-2.1-1.1-3-2.4-3
		c-1.6,0-2.2,1.7-2.8,3.5c-0.9,2.3-1.8,4.8-4.8,4.8c-2.5,0-4.6-2-4.6-5.6C57.3,122.9,58.2,120.8,59.4,119.3z"/>
	<path class="st3" d="M62.4,134.4h9V132h1.8l0.1,2.5l4.4,0.3v2h-4.4v4.3h-1.9v-4.3h-9.1c-1.9,0-3.1,0.6-3.1,2.5
		c0,0.6,0.2,1.3,0.4,1.8l-1.8,0.5c-0.3-0.9-0.6-1.9-0.6-2.8C57.3,135.4,59.3,134.4,62.4,134.4z"/>
	<path class="st3" d="M73.3,144.6v2.3H57.7v-2.3H73.3z M78.3,144.1c1,0,1.6,0.7,1.6,1.7c0,0.9-0.6,1.7-1.6,1.7
		c-0.9,0-1.6-0.8-1.6-1.7C76.7,144.8,77.4,144.1,78.3,144.1z"/>
	<path class="st3" d="M65.5,151.2c5.3,0,8.3,3.5,8.3,7.5c0,2.1-0.9,3.5-1.9,4.6l-1.6-1.2c0.9-0.9,1.5-1.9,1.5-3.2
		c0-2.9-2.5-5.1-6.3-5.1c-3.7,0-6.2,2-6.2,5c0,1.5,0.7,2.8,1.6,3.8l-1.6,1c-1.2-1.4-2-3.1-2-5C57.3,154.4,60.3,151.2,65.5,151.2z"/>
	<path class="st3" d="M80.8,167.1v2.3h-16v0.1l8.6,7v2.6l-6.3-5.2l-9.4,5.9v-2.6l7.7-4.7l-3.6-3.1h-4.1v-2.3H80.8z"/>
</g>
<g>
	<path class="st4" d="M36.9,2.3v5.9c0,4.8-1.6,7.9-6.1,7.9c-4.4,0-6.5-3.1-6.5-7.8V4.7h-8.6V2.3H36.9z M26.2,7.9
		c0,3.9,1.4,5.7,4.5,5.7c3.2,0,4.2-2,4.2-5.9V4.7h-8.7V7.9z"/>
	<path class="st4" d="M23.5,18.2c5.3,0,8.3,3.4,8.3,7.2c0,3.8-3,7.2-8.3,7.2c-5.2,0-8.2-3.4-8.2-7.2C15.3,21.6,18.3,18.2,23.5,18.2z
		 M23.5,30.2c3.7,0,6.3-2,6.3-4.8c0-2.8-2.5-4.8-6.3-4.8c-3.7,0-6.2,1.9-6.2,4.8C17.3,28.2,19.8,30.2,23.5,30.2z"/>
	<path class="st4" d="M31.3,36.9v1.9l-1.8,0.2v0.1c1.2,1.5,2.2,3.2,2.2,5c0,4.1-3.2,6.3-8,6.3c-5.4,0-8.5-3.2-8.5-6.8
		c0-1.5,0.7-2.9,1.8-4.4l-2.8,0.1H8.9v-2.3H31.3z M23.7,48c3.5,0,6-1.2,6-4.4c0-1.4-0.8-2.8-2.3-4.4H19c-1.3,1.5-1.7,2.9-1.7,4
		C17.3,46,19.8,48,23.7,48z"/>
	<path class="st4" d="M17.4,52.9l1.6,1.2c-1.1,1.4-1.9,2.8-1.9,4.7c0,2.2,1.2,3.2,2.6,3.2c1.7,0,2.4-1.9,3.1-3.7
		c0.8-2.2,1.9-4.7,4.5-4.7c2.4,0,4.4,1.9,4.4,5.3c0,1.9-0.8,3.6-1.7,4.8l-1.5-1.1c0.8-1.1,1.4-2.2,1.4-3.6c0-2.1-1.1-3-2.4-3
		c-1.6,0-2.2,1.7-2.8,3.5c-0.9,2.3-1.8,4.8-4.8,4.8c-2.5,0-4.6-2-4.6-5.6C15.3,56.5,16.2,54.4,17.4,52.9z"/>
	<path class="st4" d="M31.3,68.2v2.3H15.7v-2.3H31.3z M36.3,67.7c1,0,1.6,0.7,1.6,1.7c0,0.9-0.6,1.7-1.6,1.7c-0.9,0-1.6-0.8-1.6-1.7
		C34.7,68.4,35.4,67.7,36.3,67.7z"/>
	<path class="st4" d="M23.5,74.8c5.3,0,8.3,3.5,8.3,7.5c0,2.1-0.9,3.5-1.9,4.6l-1.6-1.2c0.9-0.9,1.5-1.9,1.5-3.2
		c0-2.9-2.5-5.1-6.3-5.1c-3.7,0-6.2,2-6.2,5c0,1.5,0.7,2.8,1.6,3.8l-1.6,1c-1.2-1.4-2-3.1-2-5C15.3,77.9,18.3,74.8,23.5,74.8z"/>
	<path class="st4" d="M18.5,90.7h20.2V93H18.4c-0.8,0-1.1,0.3-1.1,0.7c0,0.1,0,0.3,0.1,0.6l-1.8,0.3c-0.1-0.4-0.2-0.8-0.2-1.4
		C15.3,91.4,16.4,90.7,18.5,90.7z"/>
	<path class="st4" d="M23.5,97.5c5.1,0,8.3,3.4,8.3,7c0,3.9-2.8,6.2-7.3,6.2c-0.5,0-1,0-1.4-0.1V99.9c-3.5,0.1-5.8,2.2-5.8,5.4
		c0,1.5,0.5,2.8,1.3,4l-1.6,0.9c-0.9-1.4-1.6-3-1.6-5.1C15.3,100.8,18.3,97.5,23.5,97.5z M24.7,108.6c3.4,0,5.1-1.5,5.1-4.1
		c0-2.3-1.9-4.4-5.1-4.7V108.6z"/>
	<path class="st4" d="M17.4,119.3l1.6,1.2c-1.1,1.4-1.9,2.8-1.9,4.7c0,2.2,1.2,3.2,2.6,3.2c1.7,0,2.4-1.9,3.1-3.7
		c0.8-2.2,1.9-4.7,4.5-4.7c2.4,0,4.4,1.9,4.4,5.3c0,1.9-0.8,3.6-1.7,4.8l-1.5-1.1c0.8-1.1,1.4-2.2,1.4-3.6c0-2.1-1.1-3-2.4-3
		c-1.6,0-2.2,1.7-2.8,3.5c-0.9,2.3-1.8,4.8-4.8,4.8c-2.5,0-4.6-2-4.6-5.6C15.3,122.9,16.2,120.8,17.4,119.3z"/>
	<path class="st4" d="M20.4,134.4h9V132h1.8l0.1,2.5l4.4,0.3v2h-4.4v4.3h-1.9v-4.3h-9.1c-1.9,0-3.1,0.6-3.1,2.5
		c0,0.6,0.2,1.3,0.4,1.8l-1.8,0.5c-0.3-0.9-0.6-1.9-0.6-2.8C15.3,135.4,17.3,134.4,20.4,134.4z"/>
	<path class="st4" d="M31.3,144.6v2.3H15.7v-2.3H31.3z M36.3,144.1c1,0,1.6,0.7,1.6,1.7c0,0.9-0.6,1.7-1.6,1.7
		c-0.9,0-1.6-0.8-1.6-1.7C34.7,144.8,35.4,144.1,36.3,144.1z"/>
	<path class="st4" d="M23.5,151.2c5.3,0,8.3,3.5,8.3,7.5c0,2.1-0.9,3.5-1.9,4.6l-1.6-1.2c0.9-0.9,1.5-1.9,1.5-3.2
		c0-2.9-2.5-5.1-6.3-5.1c-3.7,0-6.2,2-6.2,5c0,1.5,0.7,2.8,1.6,3.8l-1.6,1c-1.2-1.4-2-3.1-2-5C15.3,154.4,18.3,151.2,23.5,151.2z"/>
	<path class="st4" d="M38.8,167.1v2.3h-16v0.1l8.6,7v2.6l-6.3-5.2l-9.4,5.9v-2.6l7.7-4.7l-3.6-3.1h-4.1v-2.3H38.8z"/>
</g>
</svg>
