<?xml version="1.0" encoding="utf-8"?>
<!-- Generator: Adobe Illustrator 21.1.0, SVG Export Plug-In . SVG Version: 6.00 Build 0)  -->
<svg version="1.1" id="圖層_1" xmlns="http://www.w3.org/2000/svg" xmlns:xlink="http://www.w3.org/1999/xlink" x="0px" y="0px"
	 viewBox="0 0 83 196" style="enable-background:new 0 0 83 196;" xml:space="preserve">
<style type="text/css">
	.st0{display:none;}
	.st1{display:inline;fill:#656565;}
	.st2{display:inline;fill:#FFFFFF;}
	.st3{fill:#656565;}
	.st4{fill:#FFFFFF;}
</style>
<g class="st0">
	<path class="st1" d="M78.7,2.5v6.1c0,4.3-1.5,7.3-5.2,7.3c-2.1,0-3.9-1.1-4.6-3.2h-0.1c-0.5,2.6-2.2,4.4-5.1,4.4
		c-4.1,0-6.2-3.3-6.2-8V2.5H78.7z M59.4,8.7c0,3.8,1.4,6.1,4.4,6.1c2.7,0,4-2.2,4-6.1V4.9h-8.4V8.7z M69.6,8.1
		c0,3.8,1.4,5.4,3.6,5.4c2.6,0,3.6-1.8,3.6-5.2V4.9h-7.2V8.1z"/>
	<path class="st1" d="M73.2,21.2v1.9l-2.9,0.2v0.1c2,1.1,3.3,2.7,3.3,4.4c0,0.7-0.1,1.1-0.3,1.7L71.2,29c0.2-0.5,0.3-0.9,0.3-1.5
		c0-1.3-1-3-3.7-4H57.5v-2.3H73.2z"/>
	<path class="st1" d="M61.5,30.4c3.4,0,5.1,3,5.9,9.7c2.1,0,4.2-0.6,4.2-3.3c0-1.9-0.9-3.6-1.7-4.8l1.7-1c0.9,1.4,2.1,3.6,2.1,6.1
		c0,3.8-2.6,5.3-6.4,5.3h-9.7v-1.9l1.9-0.2v-0.1c-1.3-1.5-2.3-3.3-2.3-5.3C57.1,32.4,58.7,30.4,61.5,30.4z M61.2,40.1h4.6
		c-0.6-5.5-2-7.4-4.1-7.4c-1.9,0-2.6,1.3-2.6,2.9S59.8,38.5,61.2,40.1z"/>
	<path class="st1" d="M73.2,47.6v1.9l-2.3,0.2v0.1c1.5,1.5,2.7,3.1,2.7,5.3c0,3.3-2.1,4.8-6.1,4.8h-9.9v-2.4h9.7
		c3,0,4.4-0.9,4.4-3.1c0-1.7-0.9-2.8-2.6-4.5H57.5v-2.3H73.2z"/>
	<path class="st1" d="M65.3,64c5.1,0,8.3,3.2,8.3,6.8c0,1.9-0.7,3.1-1.9,4.5l2.7-0.1h6.1v2.3H57.5v-1.9l1.9-0.2v-0.1
		c-1.2-1.2-2.3-2.9-2.3-4.8C57.1,66.5,60.1,64,65.3,64z M61.4,75.2h8.5c1.2-1.4,1.7-2.6,1.7-4c0-2.7-2.6-4.7-6.2-4.7
		c-3.9,0-6.2,1.6-6.2,4.5C59.1,72.4,59.9,73.8,61.4,75.2z"/>
	<path class="st1" d="M60.3,88.1l1.7,1.5c-1.7,1.5-2.7,3.7-2.7,5.9c0,2.9,1.5,4.7,3.7,4.7c2.3,0,3-1.6,3.9-3.6l1.4-3.1
		c0.8-2,2.3-4.3,5.4-4.3c3.2,0,5.5,2.8,5.5,6.6c0,2.6-1.1,4.7-2.6,6.2l-1.5-1.3c1.2-1.3,2-2.9,2-4.9c0-2.5-1.2-4.1-3.2-4.1
		c-2.2,0-3,1.9-3.7,3.5l-1.3,3.1c-1.1,2.4-2.5,4.4-5.7,4.4c-3.3,0-5.9-2.8-5.9-7.1C57.1,92.4,58.3,89.9,60.3,88.1z"/>
	<path class="st1" d="M62.2,106.3h9v-2.4H73l0.1,2.5l4.4,0.3v2h-4.4v4.3h-1.9v-4.3h-9.1c-1.9,0-3.1,0.6-3.1,2.5
		c0,0.6,0.2,1.3,0.4,1.8l-1.8,0.5c-0.3-0.9-0.6-1.9-0.6-2.8C57.1,107.4,59.2,106.3,62.2,106.3z"/>
	<path class="st1" d="M65.3,114.9c5.3,0,8.3,3.4,8.3,7.2c0,3.8-3,7.2-8.3,7.2c-5.2,0-8.2-3.4-8.2-7.2
		C57.1,118.3,60.1,114.9,65.3,114.9z M65.3,126.9c3.7,0,6.3-2,6.3-4.8c0-2.8-2.5-4.8-6.3-4.8c-3.7,0-6.2,1.9-6.2,4.8
		C59.1,124.9,61.6,126.9,65.3,126.9z"/>
	<path class="st1" d="M73.2,133.6v1.9l-2.9,0.2v0.1c2,1.1,3.3,2.7,3.3,4.4c0,0.7-0.1,1.1-0.3,1.7l-2.1-0.5c0.2-0.5,0.3-0.9,0.3-1.5
		c0-1.3-1-3-3.7-4H57.5v-2.3H73.2z"/>
	<path class="st1" d="M51,143.7l1.9,0.5c-0.1,0.3-0.2,0.8-0.2,1.2c0,1.8,1.5,3,3.5,3.7l1.2,0.3l15.8-6.3v2.5l-9,3.3
		c-1.4,0.5-3,1-4.4,1.6v0.1c1.4,0.4,3,0.9,4.4,1.3l9,2.9v2.3l-17.1-6c-3-1-5.4-2.7-5.4-5.7C50.7,144.8,50.8,144.2,51,143.7z"/>
</g>
<g class="st0">
	<path class="st2" d="M37.7,2.5v6.1c0,4.3-1.5,7.3-5.2,7.3c-2.1,0-3.9-1.1-4.6-3.2h-0.1c-0.5,2.6-2.2,4.4-5.1,4.4
		c-4.1,0-6.2-3.3-6.2-8V2.5H37.7z M18.4,8.7c0,3.8,1.4,6.1,4.4,6.1c2.7,0,4-2.2,4-6.1V4.9h-8.4V8.7z M28.6,8.1
		c0,3.8,1.4,5.4,3.6,5.4c2.6,0,3.6-1.8,3.6-5.2V4.9h-7.2V8.1z"/>
	<path class="st2" d="M32.2,21.2v1.9l-2.9,0.2v0.1c2,1.1,3.3,2.7,3.3,4.4c0,0.7-0.1,1.1-0.3,1.7L30.2,29c0.2-0.5,0.3-0.9,0.3-1.5
		c0-1.3-1-3-3.7-4H16.5v-2.3H32.2z"/>
	<path class="st2" d="M20.5,30.4c3.4,0,5.1,3,5.9,9.7c2.1,0,4.2-0.6,4.2-3.3c0-1.9-0.9-3.6-1.7-4.8l1.7-1c0.9,1.4,2.1,3.6,2.1,6.1
		c0,3.8-2.6,5.3-6.4,5.3h-9.7v-1.9l1.9-0.2v-0.1c-1.3-1.5-2.3-3.3-2.3-5.3C16.1,32.4,17.7,30.4,20.5,30.4z M20.2,40.1h4.6
		c-0.6-5.5-2-7.4-4.1-7.4c-1.9,0-2.6,1.3-2.6,2.9S18.8,38.5,20.2,40.1z"/>
	<path class="st2" d="M32.2,47.6v1.9l-2.3,0.2v0.1c1.5,1.5,2.7,3.1,2.7,5.3c0,3.3-2.1,4.8-6.1,4.8h-9.9v-2.4h9.7
		c3,0,4.4-0.9,4.4-3.1c0-1.7-0.9-2.8-2.6-4.5H16.5v-2.3H32.2z"/>
	<path class="st2" d="M24.3,64c5.1,0,8.3,3.2,8.3,6.8c0,1.9-0.7,3.1-1.9,4.5l2.7-0.1h6.1v2.3H16.5v-1.9l1.9-0.2v-0.1
		c-1.2-1.2-2.3-2.9-2.3-4.8C16.1,66.5,19.1,64,24.3,64z M20.4,75.2h8.5c1.2-1.4,1.7-2.6,1.7-4c0-2.7-2.6-4.7-6.2-4.7
		c-3.9,0-6.2,1.6-6.2,4.5C18.1,72.4,18.9,73.8,20.4,75.2z"/>
	<path class="st2" d="M19.3,88.1l1.7,1.5c-1.7,1.5-2.7,3.7-2.7,5.9c0,2.9,1.5,4.7,3.7,4.7c2.3,0,3-1.6,3.9-3.6l1.4-3.1
		c0.8-2,2.3-4.3,5.4-4.3c3.2,0,5.5,2.8,5.5,6.6c0,2.6-1.1,4.7-2.6,6.2l-1.5-1.3c1.2-1.3,2-2.9,2-4.9c0-2.5-1.2-4.1-3.2-4.1
		c-2.2,0-3,1.9-3.7,3.5l-1.3,3.1c-1.1,2.4-2.5,4.4-5.7,4.4c-3.3,0-5.9-2.8-5.9-7.1C16.1,92.4,17.3,89.9,19.3,88.1z"/>
	<path class="st2" d="M21.2,106.3h9v-2.4H32l0.1,2.5l4.4,0.3v2h-4.4v4.3h-1.9v-4.3h-9.1c-1.9,0-3.1,0.6-3.1,2.5
		c0,0.6,0.2,1.3,0.4,1.8l-1.8,0.5c-0.3-0.9-0.6-1.9-0.6-2.8C16.1,107.4,18.2,106.3,21.2,106.3z"/>
	<path class="st2" d="M24.3,114.9c5.3,0,8.3,3.4,8.3,7.2c0,3.8-3,7.2-8.3,7.2c-5.2,0-8.2-3.4-8.2-7.2
		C16.1,118.3,19.1,114.9,24.3,114.9z M24.3,126.9c3.7,0,6.3-2,6.3-4.8c0-2.8-2.5-4.8-6.3-4.8c-3.7,0-6.2,1.9-6.2,4.8
		C18.1,124.9,20.6,126.9,24.3,126.9z"/>
	<path class="st2" d="M32.2,133.6v1.9l-2.9,0.2v0.1c2,1.1,3.3,2.7,3.3,4.4c0,0.7-0.1,1.1-0.3,1.7l-2.1-0.5c0.2-0.5,0.3-0.9,0.3-1.5
		c0-1.3-1-3-3.7-4H16.5v-2.3H32.2z"/>
	<path class="st2" d="M10,143.7l1.9,0.5c-0.1,0.3-0.2,0.8-0.2,1.2c0,1.8,1.5,3,3.5,3.7l1.2,0.3l15.8-6.3v2.5l-9,3.3
		c-1.4,0.5-3,1-4.4,1.6v0.1c1.4,0.4,3,0.9,4.4,1.3l9,2.9v2.3l-17.1-6c-3-1-5.4-2.7-5.4-5.7C9.7,144.8,9.8,144.2,10,143.7z"/>
</g>
<g>
	<path class="st3" d="M78.9,2.3v2.4H59.7v9.4h-2V2.3H78.9z"/>
	<path class="st3" d="M63.4,17.1h9.9v2.3h-9.7c-3,0-4.3,0.9-4.3,3.1c0,1.7,0.8,2.8,2.8,4.4h11.2v2.3H57.7v-1.9l2.5-0.2v-0.1
		c-1.7-1.5-2.9-3-2.9-5.2C57.3,18.6,59.4,17.1,63.4,17.1z"/>
	<path class="st3" d="M51.1,33l1.9,0.5c-0.1,0.3-0.2,0.8-0.2,1.2c0,1.8,1.5,3,3.5,3.7l1.2,0.3l15.8-6.3v2.5l-9,3.3
		c-1.4,0.5-3,1-4.4,1.6v0.1c1.4,0.4,3,0.9,4.4,1.3l9,2.9v2.3l-17.1-6c-3-1-5.4-2.7-5.4-5.7C50.8,34.1,50.9,33.5,51.1,33z"/>
	<path class="st3" d="M65.5,48.3c5.1,0,8.3,3.4,8.3,7c0,3.9-2.8,6.2-7.3,6.2c-0.5,0-1,0-1.4-0.1V50.6c-3.5,0.1-5.8,2.2-5.8,5.4
		c0,1.5,0.5,2.8,1.3,4l-1.6,0.9c-0.9-1.4-1.6-3-1.6-5.1C57.3,51.6,60.3,48.3,65.5,48.3z M66.7,59.4c3.4,0,5.1-1.5,5.1-4.1
		c0-2.3-1.9-4.4-5.1-4.7V59.4z"/>
	<path class="st3" d="M80.8,65.4v2.3h-6.4l-3.3-0.1c1.5,1.5,2.7,3.1,2.7,5.3c0,3.3-2.1,4.8-6.1,4.8h-9.9v-2.4h9.7
		c3,0,4.4-0.9,4.4-3.1c0-1.7-0.9-2.8-2.6-4.5H57.7v-2.3H80.8z"/>
	<path class="st3" d="M76.9,98.4V88h2v13.1h-1.4c-6.5-5-11.5-5.9-19.8-6.3v-2.5C65.8,92.7,71.1,94.3,76.9,98.4z"/>
	<path class="st3" d="M75.7,115.5c1-0.9,1.6-2.1,1.6-3.4c0-3-2.3-5.5-9.1-5.6c1.6,1.3,2.6,3.2,2.6,4.9c0,3.6-2.2,5.9-6.7,5.9
		c-4.1,0-6.8-2.8-6.8-6c0-4.1,3.5-7,10.5-7c8.4,0,11.5,3.7,11.5,7.8c0,2.1-0.9,3.7-2.1,4.8L75.7,115.5z M64.1,114.9
		c3,0,4.9-1.2,4.9-4c0-1.4-0.8-3-2.8-4.5c-4.5,0.3-7,1.9-7,4.7C59.2,113.3,61.2,114.9,64.1,114.9z"/>
</g>
<g>
	<path class="st4" d="M36.9,2.3v2.4H17.7v9.4h-2V2.3H36.9z"/>
	<path class="st4" d="M21.4,17.1h9.9v2.3h-9.7c-3,0-4.3,0.9-4.3,3.1c0,1.7,0.8,2.8,2.8,4.4h11.2v2.3H15.7v-1.9l2.5-0.2v-0.1
		c-1.7-1.5-2.9-3-2.9-5.2C15.3,18.6,17.4,17.1,21.4,17.1z"/>
	<path class="st4" d="M9.1,33l1.9,0.5c-0.1,0.3-0.2,0.8-0.2,1.2c0,1.8,1.5,3,3.5,3.7l1.2,0.3l15.8-6.3v2.5l-9,3.3
		c-1.4,0.5-3,1-4.4,1.6v0.1c1.4,0.4,3,0.9,4.4,1.3l9,2.9v2.3l-17.1-6c-3-1-5.4-2.7-5.4-5.7C8.8,34.1,8.9,33.5,9.1,33z"/>
	<path class="st4" d="M23.5,48.3c5.1,0,8.3,3.4,8.3,7c0,3.9-2.8,6.2-7.3,6.2c-0.5,0-1,0-1.4-0.1V50.6c-3.5,0.1-5.8,2.2-5.8,5.4
		c0,1.5,0.5,2.8,1.3,4l-1.6,0.9c-0.9-1.4-1.6-3-1.6-5.1C15.3,51.6,18.3,48.3,23.5,48.3z M24.7,59.4c3.4,0,5.1-1.5,5.1-4.1
		c0-2.3-1.9-4.4-5.1-4.7V59.4z"/>
	<path class="st4" d="M38.8,65.4v2.3h-6.4l-3.3-0.1c1.5,1.5,2.7,3.1,2.7,5.3c0,3.3-2.1,4.8-6.1,4.8h-9.9v-2.4h9.7
		c3,0,4.4-0.9,4.4-3.1c0-1.7-0.9-2.8-2.6-4.5H15.7v-2.3H38.8z"/>
	<path class="st4" d="M34.9,98.4V88h2v13.1h-1.4c-6.5-5-11.5-5.9-19.8-6.3v-2.5C23.8,92.7,29.1,94.3,34.9,98.4z"/>
	<path class="st4" d="M33.7,115.5c1-0.9,1.6-2.1,1.6-3.4c0-3-2.3-5.5-9.1-5.6c1.6,1.3,2.6,3.2,2.6,4.9c0,3.6-2.2,5.9-6.7,5.9
		c-4.1,0-6.8-2.8-6.8-6c0-4.1,3.5-7,10.5-7c8.4,0,11.5,3.7,11.5,7.8c0,2.1-0.9,3.7-2.1,4.8L33.7,115.5z M22.1,114.9
		c3,0,4.9-1.2,4.9-4c0-1.4-0.8-3-2.8-4.5c-4.5,0.3-7,1.9-7,4.7C17.2,113.3,19.2,114.9,22.1,114.9z"/>
</g>
</svg>
